<svg
  xmlns="http://www.w3.org/2000/svg"
  xmlns:xlink="http://www.w3.org/1999/xlink"
  stroke-miterlimit="10"
  clip-rule="evenodd"
  viewBox="0.00 0.00 576.00 576.00"
  preserveAspectRatio="xMinYMin meet">
  <title>docwhat&apos;s logo</title>
  <desc>The logo for Christian Höltje (AKA docwhat)</desc>
  <rect fill-rule="non-zero" height="576" width="576" y="0" x="0" fill="#B5FF00"/>
  <path fill="#fff" d="m513.85 211.82c18.99 2.12 76.02 14.21 38.62 80.96-13.88 35.67-73.19 82.21-112.61 91.35-40.05 12.36-56.71 11.51-79.61 11.79l-212.02-9.29c-23-2.18-44.95-6.59-71.82-28.67-11.2-11.25-40.88-20.49-53.64-65.16-5.48-24.23-15.73-66.81 3.55-76.43 5.04-5.25 17.6-9.9 34-12.14 30.09-4.45 50.48-5.17 59.73-3.58 99.68 14.74 126 20.9 147.29 21.35 180.04-8.99 181.79-17.4 191.58-15.55 4.29 1.1 30.32 2.48 39.13 2.65zm-1.04-1" fill-rule="non-zero"/>
  <g fill-opacity=".41" transform="matrix(1.1822 0 0 1.1463 -107.2 -177.31)">
    <path d="m555.52 419.64c-16.73 29.79-61.95 64.71-92.31 72.02l0.13-0.04c-0.55 0.18-1.09 0.35-1.64 0.52-32.65 10.26-47.09 9.68-66.27 9.93h-0.05-0.06c-59.33-2.63-119-5.3-179.34-8.02l-0.1-0.01h-0.01c-9.83-0.96-19.55-2.43-29.7-6.13-10.15-3.69-21.92-10.65-32.2-19.37l-0.09-0.07-0.06-0.07c-8.63-8.95-35.16-19.05-45.88-57.73v0.02l-0.03-0.13c-1.08-4.95-2.39-10.8-3.56-16.96-4.17-22.13-5.97-44.94 7.69-51.9l-0.53 0.4c3.59-3.81 10.07-6.69 18.56-8.86 8.5-2.17 20.23-3.55 29.69-4.53s17.46-1.41 23.74-1.3c3.14 0.05 5.84 0.24 8.05 0.57 1.11 0.17 5.62 0.88 9.71 1.51 4.1 0.64 8.09 1.27 11.97 1.88 23.17 3.65 38.66 6.27 52.19 8.56 13.52 2.29 24.72 4.25 34.69 5.57 2.06 0.28 9.03 1.27 16.75 1.41h-0.11c31.17-1.63 60.97-3.52 84.24-5.37 23.26-1.84 40.09-3.63 51.14-5.03 11.05-1.39 16.59-2.37 20.05-2.82s5.61-0.25 6.88 0.15h0.03l0.03 0.01c1.65 0.53 9.28 1.26 15.15 1.76 5.87 0.49 10.5 0.84 13.15 1.1 5.28 0.53 5.86 0.94-0.18 1.17-0.1 0.01-3.01-0.06-9.09-0.36-6.09-0.29-16.17-0.73-19.58-1.55l0.07 0.01c-2.26-0.33-2.94-0.05-7 0.73-4.07 0.78-11.31 2.17-23.36 3.77-12.06 1.59-29.19 3.35-45.33 4.72-16.13 1.38-30.48 2.36-33.24 2.55-10.45 0.71-27.69 1.81-52.76 3.11l-0.04 0.01-0.14-0.01c-4.96-0.09-11.47-0.67-19.5-1.79-8.02-1.12-18.05-2.77-26.13-4.09-11.69-1.9-26.17-4.29-44.5-7.2-9.17-1.45-19.29-3.03-30.5-4.74-5.6-0.86-5.92-0.92-7.54-1.06-1.63-0.13-3.54-0.21-5.7-0.23-8.66-0.05-21.44 0.94-37.68 3.31-16.23 2.36-26.67 6.32-30.31 10.22l-0.29 0.31-0.44 0.24c-13.21 6.78-6.15 43.2-1.69 63.73l-0.03-0.14c10.5 38.06 34.11 44.84 44.64 55.81l-0.18-0.17c6.25 5.31 10.8 8.46 15.88 11.49s9.98 5.32 14.8 7.09c9.63 3.55 18.94 5 28.7 5.97l-0.13-0.01c36.72 1.71 74.89 3.46 114.35 5.22 21.18 0.94 43 1.93 65 2.92h-0.14c19.36-0.24 34.25 0.15 66.67-10.17l0.14-0.04 0.02-0.01c9.12-2.17 19.71-6.95 30.25-13.26 10.55-6.31 24.88-16.72 36.91-28.42s20.98-24.1 24.99-32.69c0.61-1.31 1.14-2.56 1.62-3.83l0.02-0.07 0.1-0.19c16.62-30.55 10.77-42.86 5.07-50.96-5.69-8.09-12.91-11.32-17.14-13.38-8.44-4.14-7.52-5.54 4.52-0.2 8.73 3.86 16.32 10.04 19.78 20.09 3.45 10.05 3.5 23.4-8.81 46.3l0.1-0.21c-1 2.74-2.36 5.78-4.08 8.95"/>
    <path d="m129.84 449.71c-8.52-8.28-17.18-20.62-22.29-38.93v0.03l-0.03-0.16c-2.34-10.53-5.75-25.17-6.53-38.49s0.63-25.94 10.68-31.17l-0.74 0.57c4.49-4.89 13.17-8.32 24.52-10.58s25.09-3.73 34.66-4.42c9.57-0.7 16.71-0.66 21.58 0.03 1.22 0.18 5.85 0.9 10.04 1.55 4.19 0.64 8.22 1.27 12.08 1.88 7.74 1.21 14.83 2.34 21.36 3.4 11.16 1.81 29.63 4.9 44.99 7.44 15.36 2.53 27 4.4 36.73 4.67h-0.22c37.26-1.88 68.46-3.92 90.83-5.72s37.1-3.41 46.86-4.64c9.75-1.22 14.64-2.05 17.89-2.43s5.99-0.13 6.98 0.2l0.08 0.02 0.04 0.01c1.27 0.42 9.75 1.27 16.71 1.78s12.97 0.86 15.95 1.02l0.11 0.01 0.09 0.01c19.69 3.99 26.83 5.89 12.85 4.23-1.58-0.19-6.25-0.93-13.23-2.1l0.13 0.01c-2.79-0.01-8.59-0.2-15.62-0.59-7.03-0.38-15.04-0.85-17.73-1.53l0.07 0.01c-4.76-0.81-5.79 0.96-31.66 4.11-12.94 1.57-31.92 3.43-55.24 5.18s-50.89 3.39-74.88 4.64h0.01-0.12c-2.99-0.06-5.42-0.24-6.72-0.34-15.35-1.21-37.01-5.51-91.18-14.02-6.77-1.06-14.05-2.19-21.89-3.39s-7.62-1.17-10.25-1.3c-5.26-0.27-12.66-0.04-22.01 0.83-9.35 0.88-22.2 2.32-31.52 4.48-9.33 2.16-16.19 5.39-19.1 8.53l-0.18 0.18-0.26 0.15c-14.37 7.42-6.69 44.07-2.1 64.89l-0.02-0.09c10.65 38.37 34.78 45.5 45.01 56.07l-0.12-0.12c0.92 0.79 1.69 1.42 2.52 2.09 18.07 14.57 36.18 20.4 57.28 22.45h-0.1c52.07 2.31 116.23 5.2 179.34 8.07h-0.1c19.62-0.24 34.62 0.06 66.82-10.17l0.1-0.04h0.02c18.13-4.32 41-18.52 58.82-33.97 17.83-15.44 30.41-31.72 35.29-44.55l0.06-0.25 0.03 0.04c10.9-20.01 11.56-32.51 9.46-41.15s-7.1-13.6-11.76-17.02c-9.34-6.82-16.53-7.78-17.91-8.2-10.79-3.35-11.61-3.1-9.9-3.27 1.7-0.17 8.16-0.1 18.11 3.51s22.11 12.04 24.91 25.97-4.83 32.53-9.85 41.82l0.1-0.22c-0.14 0.4-0.28 0.74-0.39 1.03-12.75 32.13-62.95 72.07-96.05 80.07l0.14-0.04c-34.06 10.89-48.59 10.22-67.95 10.5h-0.06-0.07c-59.77-2.61-119-5.23-179.35-7.93h-0.02l-0.1-0.01c-9.81-0.96-19.55-2.41-29.73-6.11-5.1-1.85-10.3-4.26-15.67-7.44-5.37-3.17-11.61-7.7-16.68-12l-0.1-0.11-0.07-0.06c-4.4-4.55-13.75-9.4-23.21-18.42"/>
    <path d="m560.12 351.5c10.53 9.92 16.82 27.83-0.37 59.53l0.11-0.23c-9.18 24.49-43.41 55.78-71.72 70.96-8.81 4.73-17.47 8.23-24.91 10l0.14-0.04c-34.86 11.08-48.89 10.12-67.94 10.34h-0.05-0.06c-58.75-2.68-115.86-5.29-179.32-8.37h-0.06l-0.03-0.01c-0.06 0-0.13-0.01-0.19-0.01-8.91-0.92-18.23-2.24-28.32-5.79s-21.92-10.21-33.11-19.71l-0.04-0.05-0.07-0.06c-8.63-8.97-35.01-18.74-45.79-57.51v-0.05l-0.02-0.04c-4.89-22.15-13.68-59.55 3.74-68.62l-0.49 0.37c3.63-3.94 10.33-6.9 18.5-9.05 9.12-2.41 21.47-3.87 30.87-4.88 9.39-1 16.95-1.4 22.75-1.33 2.91 0.03 5.37 0.18 7.42 0.45 0.52 0.06-0.36-0.06 1.5 0.22s3.69 0.56 5.5 0.83c3.6 0.55 7.08 1.09 10.45 1.61 13.47 2.09 25.14 3.95 35.36 5.61 40.9 6.65 57.98 10.22 72.9 10.57h-0.15c22.33-1.15 48.96-2.71 72.04-4.41 23.07-1.7 42.45-3.54 55.86-5.1 13.41-1.57 21.04-2.85 25.61-3.56 4.57-0.7 7.8-0.62 9.01-0.28l0.1 0.02 0.03 0.01c1.21 0.36 9.26 1.16 16.21 1.65 6.96 0.48 13.28 0.83 16.43 0.98l-0.01-0.02 0.25 0.04c19.6 3.84 30.28 6.3 24.29 6.12-2.92-0.09-11.8-1.34-24.77-3.4l0.18 0.02c-6.21 0.04-27.88-0.59-33.48-1.97l0.1 0.03c-4.77-0.75-4.41 0.64-25.04 3.35-20.62 2.72-62.97 6.74-136.61 10.5h-0.08-0.06c-13.02-0.32-29.78-3.44-43.8-5.73-10.67-1.75-23.98-3.96-41.22-6.71-8.62-1.37-18.22-2.88-28.97-4.53-2.69-0.42-5.45-0.84-8.29-1.27-2.83-0.43-3.29-0.52-4.01-0.61-1.44-0.18-3.18-0.31-5.19-0.37-8.06-0.25-20.56 0.55-37.16 2.87-16.59 2.33-29.71 6.58-33.74 10.93l-0.28 0.26-0.26 0.15c-13.42 6.94-6.59 43.17-1.9 64.46l-0.03-0.11c10.82 38.95 34.53 45.2 44.9 55.93l-0.15-0.14c12.48 10.58 21.34 15.16 31.02 18.67 9.68 3.52 18.9 4.92 28.57 5.87h-0.11c18.32 0.84 36.53 1.68 54.55 2.52 26.4 1.24 76.21 3.76 124.76 6.23h-0.08c20.5-0.11 37.1-0.42 67.06-9.83l0.05-0.01 0.02-0.01c13.03-3.01 26.73-10.53 36.33-16.69 23.22-14.9 50.83-41.82 58.6-62.22l0.05-0.13-0.02 0.06c16.19-29.71 10.9-44.25 4.62-52.77s-13.64-11.31-15.89-12.7c-2.52-1.56-1.22-1.57 2.83 0.1s11.39 5.14 16.72 13.83"/>
    <path d="m564.37 355.67c3.89 4.82 14.2 21.92-4.13 55.63l0.14-0.31c-3.53 9.31-10.27 18.56-14.47 23.79-21.92 27.25-58.03 51.64-82.56 57.48l0.17-0.05c-34.79 11.06-48.98 10.12-68.08 10.32h-0.06l-0.08-0.01c-58.61-2.74-115.96-5.48-179.33-8.36l-0.09-0.01h-0.03c-8.93-0.88-18.07-2.18-27.67-5.41-11.85-3.99-24.4-11.71-34.3-20.09l-0.1-0.09-0.06-0.06c-5.57-5.73-16.81-11.59-25.72-20.79-8.91-9.19-16.2-21.81-20.44-36.93l-0.01 0.03-0.03-0.16c-2.56-11.35-5.81-25.47-6.62-38.2s-0.25-25.9 10.69-31.61l-0.79 0.6c2.87-3.14 7.84-5.9 14.99-8.19s17.79-3.93 28.17-5.23c10.39-1.31 19.92-2.08 27.6-2.13 3.84-0.02 7.2 0.13 9.99 0.51 1.39 0.19 6.66 1.02 11.56 1.77 4.89 0.75 9.67 1.5 14.31 2.22 30.48 4.79 52.07 8.57 67.3 11.12 15.23 2.56 24.04 3.88 32.16 4.16l-0.19 0.01c38.51-1.91 66.87-3.77 87.98-5.47 25.49-2.04 48.85-4.94 59.27-6.66 10.41-1.73 12.71-2.16 15.32-1.48 0.05 0.01 0.12 0.02 0.13 0.03l0.11 0.02 0.07 0.02c0.8 0.29 8.75 1.21 15.8 1.78 7.04 0.57 13.53 1.02 16.65 1.27l0.1-0.02 0.19 0.05c10.88 2.38 17.9 4.2 16.3 4.49-1.67 0.31-7.71-0.29-16.82-1.55l0.17 0.02c-5.84 0.21-27.54-0.22-33.55-1.62l0.12 0.03c-2.43-0.32-2.63-0.03-5.79 0.52-3.15 0.55-8.33 1.53-17.67 2.8s-23.02 2.81-41.24 4.39c-18.23 1.59-41.04 3.21-64.97 4.65-9.76 0.59-20.36 1.19-31.91 1.79h-0.11-0.07c-13.96-0.23-30.75-3.58-83.14-11.99-6.55-1.05-13.67-2.18-21.43-3.4-7.76-1.21-19.39-3.03-21.5-3.32-4.22-0.57-11.23-0.66-20.63 0.02s-23.29 2.16-33.93 4.28c-10.63 2.12-18.42 5.65-21.37 8.82l-0.27 0.32-0.41 0.19c-13.54 6.96-6.16 43.71-1.73 63.93l-0.03-0.14c4.42 15.95 11.13 26.27 18.02 33.75 9.96 10.81 20.58 15.64 26.75 22.03l-0.18-0.16c6.32 5.36 10.91 8.52 16.02 11.54 5.12 3.03 10.03 5.31 14.85 7.06 9.63 3.51 18.81 4.91 28.52 5.87h-0.13c60 2.76 119.68 5.58 179.32 8.48h-0.12c19.38-0.17 33.88 0.45 66.84-9.93l0.22-0.07-0.1 0.03c9.75-2.27 21.2-7.48 32.7-14.5 26.29-16.08 54.05-42.9 62.25-63.73l0.09-0.07-0.05-0.03c2.75-5 4.89-9.61 6.5-13.84 8.66-22.82 1.33-36.68-3.93-42.76-2.64-3.05-4.43-4.51-3.82-4.43s3.99 1.34 8.68 7.57"/>
  </g>
  <path fill="#fff" d="m361.65 149.45c-16.19-1-10.2-0.7-12.29-0.85-30.61-2.23-68.32 4.55-85.79 4.69-11.55 0.09-25.83 0.02-49.46-1.39-17.13-2.01-17.16 1.75-18.16 2.89-1.04 1.41-2.97 4.86-4.14 7.07-1.19 2.16-3.39 5.51-4.73 7.22-1.37 1.62-3.84 4.19-5.36 5.7-1.54 1.58-4.33 4.55-6.03 6.35-1.74 1.82-4.83 5.06-6.63 7.01-1.78 1.97-4.68 5.37-6.17 7.27-1.4 1.88-3.41 5.18-4.43 7.22-1 2.12-2.83 6.11-3.99 8.63-1.21 2.62-3.52 7.79-4.98 11.16-1.49 3.47-3.88 9.37-5.01 12.63-1.05 3.25-2.76 9.14-3.88 12.7-1.17 3.56-3.34 9.69-4.63 13.32-1.31 3.68-3.4 10.08-4.38 13.81-0.87 3.8-1.86 11.16-2.11 16-0.13 5.05 0.25 14.65 0.73 20.57 0.52 5.99 1.51 16.44 2.12 22.36 0.65 5.73 2.25 14.24 3.56 18.27 1.44 3.77 4.26 9.65 5.92 13.05 1.64 3.47 4.45 9.78 6.17 13.66 1.79 4 5.1 11.78 7.1 16.88 2.04 5.25 5.77 14.21 8.14 18.94 2.48 4.54 7.18 11.75 9.99 15.62 2.8 3.76 7.58 9.73 10.46 12.95 2.97 3.17 8.64 8.37 12.23 11.17 3.64 2.67 10.02 6.65 13.71 8.67 3.67 1.96 9.71 5.09 13.02 6.77 3.3 1.64 9.1 4.23 12.44 5.56 3.27 1.23 8.46 3.01 11.28 3.91 2.78 0.88 7.71 2.37 10.79 3.23 3.21 0.87 9.11 2.35 12.54 3.15 3.37 0.77 8.84 1.97 11.9 2.56 3.04 0.54 8.23 1.14 11.19 1.26 2.97 0.02 8.38-0.41 11.82-0.97 3.59-0.69 10.59-2.63 15.18-4.24 4.76-1.79 13-5.43 17.31-7.64 4.04-2.21 9.93-5.78 12.8-7.54 2.71-1.61 7.05-3.98 9.66-5.39 2.72-1.49 8.22-4.62 11.96-6.81 3.94-2.34 11.32-7.21 15.69-10.48 4.35-3.42 11.7-9.77 15.79-13.6 4.01-3.87 10.44-10.7 13.85-14.69 3.27-3.98 8.18-10.66 10.67-14.35 2.39-3.59 6.12-9.42 7.96-12.62 1.7-3.18 3.94-8.96 4.87-12.75 0.8-4.03 1.68-11.85 1.98-16.51 0.26-4.53 0.66-11.22 0.95-14.35 0.33-2.94 1-7.95 1.4-11.11 0.37-3.29 0.95-9.56 1.26-13.58 0.31-4.17 0.87-11.61 1.24-15.87 0.38-4.21 1-11.53 1.22-15.9 0.12-4.54-0.29-13.59-0.96-19.6-0.85-6.19-3.22-16.86-5.18-22.56-2.16-5.48-6.57-14.15-9.28-18.91-2.7-4.67-6.99-12.11-9.24-16.05-2.21-3.82-6.11-10.05-8.56-13.48-2.5-3.37-6.85-8.75-9.29-11.58-2.43-2.73-6.71-7.37-9.3-10.36-2.6-3.18-6.83-9.02-9-12-2.07-2.67-5.46-6.09-7.47-7.68-2.06-1.55-6.1-4.23-8.7-5.75-2.63-1.46-3.96-2.43-5.89-3.06zm2.56 0.31" fill-rule="non-zero"/>
  <g fill-opacity=".41" transform="matrix(1.1822 0 0 1.1463 -107.2 -177.31)">
    <path d="m307.81 290.26c-8.74-0.01-19.77-0.23-36.13-1.22l0.07 0.02-0.18-0.03c-7.25-0.88-10.51-0.4-11.92 0.13-1.4 0.53-0.72 0.49-1.79 1.75l0.09-0.11c-1.16 1.61-1 1.58-1.64 2.74-0.65 1.16-1.26 2.38-1.81 3.38-1.09 2-2.85 4.79-4.07 6.4l-0.05 0.06 0.01-0.01c-6.07 7.47-15.53 15.59-20.93 23.74-3.08 4.66-5.18 9.98-7.71 15.79-2.52 5.82-5.38 12.77-6.9 17.23-1.53 4.46-3.22 11.08-5.38 17.45-1.08 3.19-1.9 5.49-2.87 8.49s-2.09 6.69-2.66 8.91l0.02-0.07c-0.82 3.72-1.77 10.78-1.74 15.87 0.02 5.1 0.32 11.89 0.77 16.99s1.14 12.58 1.61 17.3c0.46 4.72 1.89 12.65 2.99 16.14l-0.03-0.1c1.38 3.71 3.88 8.81 5.81 13.14 1.93 4.32 3.92 8.89 5.81 13.41 1.9 4.53 3.87 9.56 5.62 14.07 1.76 4.51 4.22 10.47 5.81 13.75l-0.03-0.07c2.1 3.97 5.76 9.9 8.65 13.86 1.44 1.98 3.42 4.56 5.25 6.87 1.84 2.3 3.04 3.78 4.94 5.7 7.61 7.69 16.9 13.58 27.16 19.04s19.37 8.87 30.2 12.13c5.42 1.63 9.97 2.75 15.72 4.05 5.74 1.31 11.98 2.38 15.91 2.54h-0.07c0.38 0 0.83-0.01 1.31-0.02 9.97-0.33 20.21-3.81 29.92-8.3 4.86-2.24 8.68-4.48 12.87-7.06 4.18-2.57 8.75-5.15 11.83-6.87 6.15-3.45 17.13-9.85 24.04-15.55 6.92-5.7 16.56-14.97 22.98-22.47 5.89-6.9 12.9-17.86 16.47-24.15l-0.02 0.04c1.37-2.59 3.25-7.52 4.04-10.77l-0.01 0.05c1.01-5.1 1.76-16.91 2.37-25.13 0.2-2.7 1.52-12.54 2.83-30.35 0.65-8.91 1.81-16.03 1.44-26.28-0.18-5.12-0.47-10.04-1.39-15.13-0.91-5.1-2.41-11.58-3.65-15.33l0.02 0.06c-1.01-2.67-2.71-6.4-4.38-9.82s-2.95-5.8-4.69-8.94c-3.48-6.26-6.43-11.89-10.16-18.02-7.46-12.27-14.95-19.01-21.07-27.64-12.24-17.24-19.97-21.26-11.87-16.57 0.1 0.05 2.78 1.6 6.98 6.49s8.64 11.57 15.06 18.73 13.27 16.92 18.04 25.25c4.76 8.32 12.03 20.87 15.36 29.27v0.03l0.03 0.06c1.51 4.35 3.06 11.06 4 16 0.93 4.94 1.23 9.3 1.45 13.49 0.46 8.38 0.02 12.19-0.05 13.31-0.25 3.61-0.61 7.61-1.06 13.74-0.46 6.13-0.95 13.42-1.56 19.43s-1.47 12.45-1.88 19.73c-0.42 7.28-1.13 14.32-1.9 18.38l-0.02 0.05-0.01 0.06c-0.44 1.86-1.13 3.98-1.79 5.78-0.8 2.21-1.74 4.43-2.52 5.94l-0.04 0.1v-0.02c-1.26 2.28-3.42 5.82-5.28 8.78-1.85 2.95-3.29 5.08-5.39 8.04-4.21 5.92-8.12 10.56-12.95 15.75-4.84 5.19-9.38 9.3-14.44 13.66-5.06 4.35-11.11 8.49-15.78 11.45-4.67 2.97-10.36 6.08-16.2 9.44-5.83 3.36-10.68 6.82-16.01 9.47-5.32 2.65-11.43 5.47-18.12 7.5-3.35 1.01-6.05 1.85-9.13 2.3-3.07 0.46-7.16 0.77-9.7 0.75l-0.12-0.01h0.03c-4.77-0.2-11.04-1.36-16.84-2.69s-10.5-2.5-16-4.17c-11.01-3.34-20.65-7.01-30.87-12.48-10.23-5.46-20.12-11.69-28.16-19.82-4.02-4.06-7.62-8.96-10.66-13.13-3.03-4.16-6.73-10.14-9.04-14.52l-0.03-0.05-0.01-0.02c-1.69-3.52-4.07-9.32-5.85-13.9s-3.64-9.37-5.53-13.9c-1.89-4.54-3.84-9.03-5.79-13.4-1.94-4.37-4.42-9.37-5.98-13.58l-0.02-0.08-0.02-0.04c-1.12-3.56-2.43-10.65-3.04-15.8-0.61-5.16-1.05-10.84-1.53-16.2-0.53-5.99-0.9-12.33-0.98-18.37s0.8-13.5 1.84-18.18l0.01-0.03 0.01-0.04c1.83-7.2 5.62-16.97 7.94-24.75 2.33-7.79 5.1-16.25 8.92-25.11 3.81-8.86 6.3-15.83 12.37-23.24 6.08-7.4 12.16-13.16 17.43-19.21 0.27-0.32 0.53-0.62 0.74-0.88l-0.05 0.06c1.81-2.36 4.95-8.88 7.49-12.4l0.07-0.07 0.04-0.07c1.05-1.21 2.18-5.12 17.38-3.27l-0.13-0.01c20.56 1.3 32 1.35 39.7 1.29 5.53-0.03 10.08-0.37 15.91-0.88 5.84-0.51 11.9-1.07 17.52-1.48 11.22-0.83 20.46-0.97 26.27-0.69 11.62 0.56 10.88 1.24-3.62 2.14-11.74 0.73-22.44 1.9-32.45 2.95s-17.18 1.77-27.45 2.01"/>
    <path d="m299.35 570.32c5.19 1.73 13.63 4.09 19.46 5.5 5.83 1.4 14.8 3.17 19.62 3.33h-0.08c1.87 0 5.43-0.26 8.11-0.63 2.69-0.37 4.47-0.92 7.37-1.77 5.79-1.7 10.49-3.72 15.88-6.28 2.7-1.28 4.45-2.16 6.99-3.68s5.42-3.33 7.41-4.59c3.97-2.53 8.66-5.08 13.92-8.19 21.02-12.45 35.29-25.35 48.75-44.35 1.26-1.77 2.36-3.33 4.03-5.97 1.68-2.63 4.23-6.74 5.64-9.24l-0.05 0.08c1.25-2.4 3.13-7.28 3.89-10.44l-0.03 0.12c0.92-4.71 1.71-16.25 2.32-24.43 0.61-8.19 1.97-17 2.74-27.13 0.38-5.06 0.78-9.65 1.23-15s0.79-9.28 0.64-14.57c-0.15-5.3-0.43-10.27-1.33-15.39-0.9-5.11-2.35-11.44-3.52-15.07l0.04 0.11c-3.28-8.74-11.43-23.09-15.3-30.27-0.97-1.79-2.64-4.65-4.14-7.11-1.5-2.45-2.54-4.11-4.07-6.2-3.06-4.17-5.87-7.73-9.21-11.62-6.68-7.8-10.83-15.26-16.07-20.83-2.62-2.78-4.81-4.25-7.47-6.09-2.65-1.84-4.63-3.29-6.6-4.06l0.18 0.05c-10.12-2.01-12.38-2.91-2.86-2.11 0.57 0.05 1.63 0.18 3.13 0.37l-0.03 0.02 0.15 0.01c3.01 0.94 8.8 3.96 14.04 8.83 5.25 4.88 9.9 12.78 17.13 20.94 3.62 4.09 6.68 7.75 10.06 12.2 1.68 2.22 2.9 4.06 4.51 6.62 1.6 2.56 3.37 5.53 4.41 7.38 4.14 7.41 12.25 21.43 15.75 30.49l0.03 0.09-0.01-0.04c1.09 3.27 2.28 8.14 3.19 12.57 0.9 4.44 1.39 7.77 1.7 12.04 0.61 8.55 0.35 15-0.2 21.89-1.09 13.77-1.71 22.41-2.08 26.45-0.67 7.21-1.52 12.09-1.98 19.63-0.46 7.53-1.04 15.79-2.05 21.07v0.01l-0.01 0.05c-0.83 3.5-2.76 8.62-4.23 11.46l-0.01-0.01-0.01 0.06c-1.19 2.12-3.22 5.45-5.02 8.32-1.8 2.88-3.11 4.85-5.11 7.67-3.98 5.64-7.63 10.13-12.39 15.29-4.76 5.17-8.92 9.04-14.08 13.55s-10.57 8.35-15.68 11.68-10.09 6.06-16.04 9.47c-2.98 1.7-4.97 2.95-7.77 4.69-2.81 1.74-6.11 3.81-8.61 5.09-5 2.56-11.4 5.61-18.19 7.72-3.39 1.05-6.26 1.96-9.29 2.44-3.04 0.47-7.29 0.81-9.83 0.8h-0.01l-0.05-0.01c-5.28-0.2-13.29-1.83-19.07-3.17s-12.44-3.16-18.54-5.08c-12.21-3.84-24.67-9.75-34.46-15.48-6.22-3.63-15.78-10.92-21.28-16.88s-13.37-17.17-17.78-25.49l-0.01 0.02-0.01-0.07c-1.6-3.29-3.88-8.79-5.68-13.35-1.79-4.55-3.54-9.12-5.49-13.8s-3.84-9-5.88-13.6c-2.05-4.6-4.56-9.64-6.16-13.95l-0.02-0.04-0.02-0.05c-1.17-3.73-2.67-12.06-3.12-16.62s-1.14-11.99-1.59-17.24c-0.46-5.26-0.78-12.03-0.82-17.44-0.03-5.42 0.92-12.8 1.85-17.01l0.01-0.02 0.01-0.04c0.92-3.6 2.68-9.1 3.99-12.89s2.94-8.39 4.2-12.67c2.53-8.54 5.43-16.79 9.29-25.69 3.87-8.91 6.78-15.81 12.83-23.02 3.02-3.61 5.59-6.23 8.55-9.47 2.96-3.23 6.57-6.89 8.48-9.23l-0.03 0.04c1.01-1.32 2.85-4.2 3.8-5.96 0.48-0.88 1.17-2.21 1.84-3.41 0.66-1.19 2.05-3.34 1.84-3.04l0.09-0.11c-0.2 0.24 0.92-1.93 3.37-2.83 2.45-0.89 6.48-1.15 13.56-0.29l-0.1-0.01c21.74 1.36 34.25 1.35 41.96 1.28 7.72-0.07 19.31-1.54 29.66-2.53 20.69-1.98 35.58-1.7 37.96-1.52 3.55 0.27 5.85 0.83 5.78 0.92-0.08 0.1 0.69 0.14 2.45 0.37 3.53 0.46 4.19 0.71 0.98 0.7-1.6-0.01-3.24-0.03-3.8 0.01s0.22 0.16-0.69 0.17-4.45-0.12-7.11-0.11c-2.65 0.01-5.56 0.08-8.62 0.21-12.25 0.54-26.98 2.3-37.6 3.54-10.62 1.25-16.89 1.69-18.9 1.72-9.02 0.17-22.48 0.11-42.31-1.07l-0.17-0.01h0.06c-14.21-1.7-12.99 1.12-13.61 1.87l0.1-0.12c-1.36 1.91-5.05 9.29-7.51 12.54l-0.04 0.03v0.02c-2.51 3.09-6.1 6.68-9 9.87-2.91 3.2-5.62 6.02-8.66 9.71-6.07 7.37-8.16 13.5-11.97 22.37-3.8 8.88-6.38 16.68-8.78 24.8-1.2 4.06-2.91 8.92-4.15 12.52-1.23 3.6-2.98 9.16-3.77 12.3l0.01-0.07c-0.81 3.7-1.75 10.76-1.72 15.87 0.03 5.1 0.33 11.86 0.79 16.97 0.45 5.11 1.14 12.58 1.61 17.28s1.9 12.59 3 16.05l-0.04-0.11c1.37 3.68 3.87 8.78 5.81 13.11 1.93 4.33 3.92 8.89 5.82 13.41 1.9 4.53 3.88 9.57 5.63 14.07 1.76 4.51 4.23 10.47 5.81 13.73l-0.04-0.08c1.43 2.69 3.86 6.67 5.98 9.91 2.11 3.25 3.86 5.59 6.39 8.85 5.08 6.52 9.92 11.68 15.33 15.63 10.84 7.92 27.73 16.26 40.31 20.52"/>
    <path d="m353.66 286.81c-14.3 1.15-29.04 3.25-38.66 3.55-9.62 0.29-22.82 0.13-43.34-1.11l0.34 0.06-0.46-0.07c-14.3-1.72-12.9 1.08-13.52 1.81l0.1-0.13c-1.36 1.91-5.17 9.42-7.54 12.52h-0.02l-0.02 0.05c-1.38 1.68-3.58 3.97-4.96 5.42-2.43 2.57-5.74 6.19-8.74 9.47-3 3.27-5.39 5.84-7.59 9.24-2.19 3.39-3.78 7.09-5.49 10.91s-3.52 7.95-4.82 11.08c-2.61 6.27-5.47 15.81-7.68 22.6-2.21 6.78-5.88 17.02-7.35 22.76l0.01-0.06c-0.83 3.71-1.78 10.78-1.77 15.84s0.31 11.88 0.74 16.94c0.43 5.05 1.11 12.54 1.57 17.3 0.46 4.77 1.92 12.86 2.98 16.27l-0.03-0.09c1.28 3.48 3.81 8.71 5.66 12.89s3.89 8.88 5.73 13.3c1.84 4.43 3.88 9.64 5.62 14.16 1.73 4.52 4.25 10.69 5.88 14.1l-0.02-0.05c0.5 0.97 1.14 2.1 1.84 3.31 9.73 16.69 22.82 31.02 43.64 42.13 10.41 5.55 19.28 8.98 30.51 12.36 5.61 1.7 10.19 2.81 15.99 4.13 5.81 1.31 12.08 2.39 16.13 2.54h-0.05c2.05 0.01 5.74-0.27 8.48-0.65 2.74-0.39 4.7-1 7.65-1.87 5.9-1.74 10.58-3.79 15.79-6.26 10.43-4.96 17.86-10.32 25.78-15 12.77-7.53 25.85-17.08 35.23-26.77 2.34-2.42 5.3-5.64 7.71-8.39 2.42-2.74 4.12-4.93 6.44-8.13s4.05-5.67 5.99-8.72c1.93-3.04 4.43-7.11 5.72-9.42l-0.03 0.06c1.37-2.63 3.21-7.56 3.94-10.62l-0.02 0.09c1.09-5.6 1.83-18.8 2.41-25.84 0.28-3.53 1.06-8.43 1.5-12.78 0.43-4.35 0.79-8.99 1.17-14.07 0.52-7.03 1.83-16.29 1.75-25.28-0.04-4.49-0.27-11.26-1.1-16.42-0.82-5.17-2.59-13.15-4.03-17.48l0.03 0.1c-1.43-3.74-4.32-9.78-6.55-14.04s-5.16-9.32-7.57-13.68c-4.84-8.72-11.19-18.26-16.43-24.4-2.62-3.06-6.34-7.1-9.13-10.9s-4.89-7.38-7.7-10.65c-5.6-6.55-11.09-10.25-15.94-12.09l0.22 0.06c-11.13-2.09-16.46-3.42-12.35-3.51 1.78-0.03 6.22 0.4 12.71 1.19l0.05 0.02 0.12 0.02c2.34 0.71 5.08 2.43 8.19 4.42 3.12 1.99 5.54 3.63 8.56 6.82 6.04 6.39 10.61 13.74 16.88 20.79 6.27 7.06 13.06 16.92 17.48 24.8 4.41 7.88 11.8 20.68 15.26 29.69l0.03 0.06v0.02c2.89 8.66 5.14 23.81 5.29 34.28 0.15 10.48-1.44 22.07-2.13 31.06-0.35 4.5-0.8 9.56-1.41 14.33-0.6 4.77-0.98 8.05-1.27 12.51-0.57 8.92-1.28 17.25-2.14 21.73l-0.02 0.07c-0.32 1.35-0.76 2.8-1.22 4.16-0.91 2.67-2.03 5.44-3.03 7.38l-0.06 0.08 0.03-0.03c-1.19 2.14-3.05 5.2-4.8 8.01-1.76 2.8-3.01 4.72-4.91 7.42-3.79 5.41-7.33 9.9-12 15.02-4.68 5.12-8.63 8.93-13.85 13.54-5.21 4.61-10.23 8.32-15.68 11.93-5.45 3.62-10.25 6.29-16.07 9.59-2.91 1.66-5.28 3.08-7.95 4.75-2.67 1.68-6.5 4.08-8.86 5.33-4.73 2.48-11.49 5.75-18.4 7.93-6.92 2.18-14.44 3.46-19.78 3.43h-0.01-0.06c-4.75-0.19-11.02-1.34-16.84-2.66s-10.51-2.47-16.12-4.16c-11.21-3.38-20.6-6.97-31.07-12.55-10.48-5.57-20.29-11.95-28.02-19.83-3.87-3.95-7.56-8.97-10.46-12.96s-6.6-9.98-8.84-14.21l0.01 0.02-0.04-0.09c-1.21-2.49-2.75-6.13-4.19-9.67-1.43-3.54-2.43-6.26-3.72-9.55-2.59-6.58-5.07-12.43-8.02-19.19-1.09-2.5-1.93-4.36-3.18-7.08-1.25-2.73-2.93-6.43-3.97-9.28l0.01 0.04-0.04-0.14c-0.98-3.17-2.22-9.68-2.87-15.01-0.64-5.33-1.03-11.12-1.51-16.93-0.48-5.8-0.81-12-0.86-18.1-0.02-3.05 0.09-5.52 0.48-8.93s0.94-6.99 1.48-9.31v-0.02l0.01-0.03c1.07-4.05 2.9-9.51 4.55-14.21s3.18-9.16 4.74-14.36c1.55-5.2 2.95-9.23 4.89-14.01 1.94-4.79 4.22-9.9 5.61-12.93 1.4-3.03 3.58-8.21 6.07-12.11 2.49-3.91 5.05-6.6 7.76-9.54 5.43-5.89 11.28-11.75 14.2-15.26l-0.02 0.02c0.58-0.75 1.36-1.89 2.07-2.99 2.03-3.17 3.97-7.31 5.49-9.41l0.01-0.02 0.02-0.03c0.91-1.03 1.05-4.54 15.99-2.72h-0.04c31.19 1.96 41.14 1.78 58.72 0.11 17.57-1.68 35.18-2.66 39.54-2.18 6.49 0.72-6.19 1.38-24.93 3.19"/>
    <path d="m347.91 287.7c-4.83 0.64-17.91 2.23-27.75 2.94s-19.19 0.27-26.05 0.09c-6.35-0.17-13.96-0.49-22.47-1.01h-0.14l-0.01-0.01c-14.27-1.72-12.54 0.97-13.11 1.65l0.13-0.17c-1.25 1.75-5.13 9.36-7.55 12.54l0.01 0.02-0.06 0.04c-2.61 3.2-6.51 7.1-9.36 10.22-2.84 3.11-5.84 6.25-8.89 9.96-6.09 7.43-8.07 13.75-11.84 22.49-3.77 8.75-6.33 16.72-8.63 24.35-2.3 7.62-6.29 18.18-7.86 24.27l0.02-0.08c-0.83 3.65-1.79 10.69-1.79 15.73s0.29 11.86 0.71 16.91c0.43 5.05 1.1 12.54 1.56 17.31s1.92 12.85 2.96 16.2l-0.04-0.11c1.26 3.42 3.8 8.69 5.66 12.88s3.9 8.88 5.75 13.31 3.9 9.65 5.65 14.15c1.74 4.51 4.27 10.66 5.9 14.05l-0.03-0.07c3.66 6.92 11.41 17.93 16.7 24.14 3.38 3.96 8.1 8.32 12.94 11.65s9.07 5.72 14.04 8.37 8.64 4.51 12.99 6.43c4.34 1.93 8.75 3.41 11.91 4.45 6.33 2.09 14.82 4.39 21.01 5.79 6.18 1.4 14.03 2.8 18.16 2.92h-0.08c5.46-0.03 16.19-2.27 22.08-4.66 5.9-2.39 15.26-7.12 22.65-11.81 7.38-4.69 15.59-8.62 26.64-16.26 5.52-3.82 10.03-7.56 15.66-12.7 2.81-2.57 4.74-4.44 7.56-7.46 2.83-3.02 5.8-6.19 8.05-9.06 4.81-6.11 12.02-16.99 15.31-22.79l-0.05 0.09c1.37-2.59 3.2-7.47 3.92-10.4l-0.03 0.13c0.47-2.31 1.07-6.91 1.44-10.65s0.53-7.35 0.81-11.26c0.56-7.83 1.6-13.27 2.35-21.24 1.51-15.94 3.29-27.18 2.45-42.41-0.23-4.06-0.53-7.43-1.42-12.02-0.88-4.6-2.26-10.44-3.47-13.98l0.04 0.11c-1.86-4.75-5.3-11.72-8.53-17.39-1.61-2.84-3.64-6.43-5.3-9.36-1.65-2.94-2.83-5.04-4.66-8.04-3.64-5.98-7.33-10.84-10.71-15.04s-7.17-8.12-9.55-11.3c-3.86-5.14-8.71-12.68-12.21-16.12-3.49-3.43-8.7-7.14-11.98-8.57l0.24 0.06c-4.34-1.02-6.65-1.76-5.76-2.01 0.83-0.23 2.93-0.21 6.07 0.01l-0.01-0.01 0.11 0.03c3.8 0.91 9.63 3.74 15.58 9.45 5.95 5.7 10.52 13.24 17.45 20.96 3.47 3.86 6.75 7.88 9.81 11.96 3.06 4.07 6.36 9.72 8.58 13.65 4.43 7.86 12.01 21.02 15.45 29.97v0.01l0.04 0.09c1.2 3.59 2.5 9.09 3.44 13.87 0.93 4.78 1.35 8.62 1.62 13.38 0.28 4.75 0.41 8.26 0.19 12.02-0.22 3.75-0.6 8.46-0.85 11.5-0.37 4.45-0.75 10.27-1.12 15.17-0.36 4.89-0.85 10.17-1.56 15.9-0.7 5.72-0.97 10.14-1.29 15.79-0.31 5.65-0.98 12.25-1.79 16.52l-0.01 0.07-0.02 0.04c-0.83 3.53-2.72 8.6-4.31 11.69l-0.04 0.08v-0.01c-1.27 2.27-3.2 5.43-5.01 8.3-1.8 2.88-3.13 4.87-5.12 7.7-3.99 5.64-7.71 10.21-12.52 15.43-4.82 5.21-9.06 9.17-14.29 13.71-5.23 4.55-10.83 8.5-15.94 11.81-5.12 3.31-10.28 6.13-16.28 9.55s-11.18 7.11-16.41 9.74c-5.22 2.64-11.55 5.6-18.33 7.67-3.39 1.04-6.16 1.91-9.25 2.37-3.08 0.46-7.21 0.78-9.76 0.76v0.01l-0.08-0.01c-5.48-0.22-13.45-1.87-19.2-3.21-5.74-1.34-12.13-3.08-18.19-4.99-15.88-4.98-29.86-11.67-43.54-21.2-6.84-4.76-11.84-10.01-17.24-16.89-2.7-3.44-4.78-6.2-7.01-9.62-2.24-3.41-4.84-7.64-6.46-10.72v-0.02l-0.04-0.06c-3.46-7.16-7.76-19.12-11.49-28.08-1.87-4.47-3.85-9.06-5.74-13.32-1.89-4.27-4.35-9.27-5.87-13.4l-0.03-0.08-0.01-0.03c-1.21-3.89-2.68-12.27-3.13-17.01s-1.12-12.22-1.55-17.34c-0.43-5.13-0.73-12.07-0.73-17.35s0.95-12.54 1.92-16.81v-0.02l0.01-0.05c1.89-7.26 5.7-16.95 8.12-24.95s5.23-16.29 9.12-25.2c3.88-8.91 6.46-15.74 12.71-23.22 3.13-3.74 5.93-6.6 8.86-9.77s6.88-7.15 8.95-9.64l-0.03 0.04c0.09-0.13 0.2-0.26 0.31-0.41 2.2-2.99 5.15-9.09 7.26-11.95l0.04-0.05 0.03-0.05c1.03-1.13 1.92-4.71 16.65-2.87l-0.08-0.01c24.92 1.73 35.41 2.24 47.68 1.58 9.49-0.51 24.69-1.78 33.02-1.87 8.34-0.09 9.21 0.37-5.31 2.15"/>
  </g>
  <g>
    <path d="m199.84 406.13c3.71-1.74 8.01-4.61 9.46-4.52 0.72 0.05 0.34 0.19-1.49 1.09-1.82 0.89-4.46 2.78-5.58 3.68-2.25 1.8-7.62 5.35-3.24 4.83 4.38-0.51 8.35-1.5 7.95 0.14-0.1 0.41-0.56 1.04-1.65 1.9s-3.96 2.5-4.4 2.79c-0.87 0.59 2.2-0.16 4.65-0.88 2.46-0.72 3.1-0.82 3.31-0.46 0.21 0.37-0.19 1.27-4.25 3.71-2.03 1.22-1.76 1.04-2.44 1.5s-1.6 1.09-2.52 1.75c-1.84 1.32-3.75 2.98-3.39 3.28 0.71 0.59 7.53-1.98 12.02-3.59 2.25-0.81 3.71-1.77 3.63-1.6-0.09 0.16-2.19 1.39-4.25 2.81-4.13 2.83-7.55 5.74-8.99 8.01-0.72 1.14 0.48 1.58 2.75 0.88 2.26-0.71 5.13-1.58 5.64-1.36 0.5 0.22-2.01 0.77-4.29 1.81-2.28 1.05-3.45 2.99-1.99 2.57 1.46-0.43 4.55-1.89 6.31-2.86 1.76-0.98 1.4-1.69 1.25-1.57-0.15 0.13-1.81 1.28-6.58 4.47-2.39 1.59-2.08 1.47-2.68 2.08-0.61 0.62-1.18 1.31-1.77 2.04-1.19 1.47-2.49 3.49-1.68 3.65 0.81 0.15 2.45 0.17 4.55 0 2.1-0.18 4.63-0.56 7.05-1.26 2.42-0.71 4.78-3.11 4.63-2.92-0.15 0.2-2.8 2.31-4.98 3.28-2.18 0.98-2.3 1.12-4.05 2.43-1.76 1.3-5.02 3.72-5.12 4.16-0.09 0.44 2.47 0.75 4.92 0.38 2.44-0.38 5.34-0.96 7.17-1.53 1.82-0.57 0.38-0.81-1.21 0.91-3.17 3.45-6.8 6.57-9.05 9.33s2.77 1.95 7.52 0.02c2.37-0.97 4.77-2.13 6.4-3.29 1.63-1.17-0.17-1.48-1.84-0.44-3.35 2.1-9.86 5.11-10.95 6.82-0.54 0.86 0.62 2.14 3.43 0.91 1.4-0.61 5.04-2.72 5.47-2.97 0.42-0.24 1-0.53 1.52-0.74 1.02-0.42 1.09-1.47 0.42-0.66-0.33 0.41-1.14 1.19-2.56 2.35s-4.53 3.42-5 3.84c-0.95 0.86-3.13 3.29-4.35 5.34-0.62 1.03-1.06 2.25-0.61 2.95s2.25 0.44 2.82 0.29c2.3-0.58 6.35-1.29 10.51-2.5 2.08-0.6 4.19-1.33 6.14-2.23s1.9-2.65 1.56-2.3c-1.36 1.4-14.77 12.57-19.67 16.47-2.45 1.95-3.59 6.93 5.55 3.82 4.57-1.55 4.3-1.81 6.08-2.81 1.77-0.99 3.74-2.13 5.68-3.06 3.89-1.87 7.75-2.47 7.68-2.31-0.08 0.15-3.8 2.74-8.24 5.21-2.23 1.24-4.63 2.54-6.87 3.79-2.25 1.26-5.1 2.92-5.9 3.45-0.79 0.54 0.4 2.09 1.59 2.01s2.97-0.41 5.15-1.09c2.19-0.67 4.77-1.69 7.48-3.16 2.72-1.46 5.83-3.92 6.63-4.28 1.62-0.71 4.62-2.4-3.92 1.92-8.54 4.31-9.91 4.58-13.29 6.69-1.69 1.05-3.3 2.22-4.77 3.57-1.47 1.34-2.1 3.69-1.28 3.87 3.3 0.69 15.63-5.39 25.2-8.69 2.39-0.82 4.55-1.5 6.18-1.88 0.82-0.19 1.57-0.32 1.99-0.34s-0.28-1.03-0.28-1.02c-0.02 0.01-5.42 3.38-10.55 4.72-5.12 1.33-7.56 0.2-11.8 1.54-4.24 1.33-9.64 3.77-13 6.21-3.35 2.44-2.79 5.72-0.05 5.58 2.74-0.15 7.28-1.34 12.36-2.65 5.09-1.31 10.65-2.75 15.01-3.41 4.35-0.66 4.14-2.03 0.67-0.27-3.46 1.77-9.57 4.43-14.19 6.66-4.63 2.23-7.87 3.04-8.38 6.47-0.26 1.71 1.92 2.58 5.31 2.2 0.84-0.09 1.82-0.24 2.95-0.46 1.13-0.21 3.52-0.75 3.82-0.82 0.62-0.15 1.32-0.37 2.1-0.65 3.14-1.11 7.65-3.13 12.02-4.81 4.37-1.67 10.37-2.72 10.32-2.73 0 0-0.31-1.87-0.31-1.88 0.01 0-0.09 0.05-0.29 0.13-0.4 0.16-1.08 0.41-1.92 0.75-1.68 0.68-4.04 1.72-6.43 3.24-2.38 1.53-4.8 3.55-6.59 6.21-1.78 2.66 0.65 3.09 1.75 2.48 2.2-1.21 7.03-4.85 12.52-7.34 5.5-2.49 10.35-4.76 13.51-5.4s2.16-0.38-0.4 1.25-7.06 4.18-11.48 7.03c-4.42 2.84-9.69 6.83-10.94 8.72-0.32 0.47 0.85 2.07 1.36 1.96 0.51-0.1 0.97-0.32 1.63-0.63 1.32-0.62 3.23-1.64 5.45-2.87 4.46-2.45 10.19-5.7 14.66-7.97 2.23-1.14 4.17-2.03 5.38-2.43 0.61-0.2 0.98-0.24 0.95-0.24s-0.75-1.29-0.73-1.31c0.05-0.11-3.24 2.78-7.32 5.89-4.07 3.1-9.14 7.02-13.53 11.09-2.19 2.03-2.44 3.65-0.62 4.49 0.91 0.43 1.98 0.24 3.41-0.34 0.71-0.29 1.54-0.7 2.51-1.27 0.97-0.56 2.8-1.78 3.23-2.09 6.92-4.83 10.57-9.72 18.86-13.34 1.04-0.45 2.94-1.16 3.25-1.26s-0.84-1.63-0.9-1.56c-0.12 0.16-1.85 1.67-3.89 3.31-4.08 3.28-9.88 7.75-11.91 11.06-1.01 1.66 0.17 3.86 1.44 3.66 1.26-0.21 2.51-1.03 4.19-2.21 3.35-2.35 7.9-6.27 12.08-10.14 4.18-3.88-0.16-3.99-4.26-2.52-4.09 1.48-10.02 3.9-15 5.73-9.96 3.67-13.9 3.07-22.17 4.09-4.14 0.51-11.55 2.17-12.29 2.6-0.09 0.06 0.3 2.06 0.38 2.07 0.09 0.01 0.39 0.01 0.55-0.01 0.32-0.04 0.74-0.11 1.3-0.24 1.12-0.26 2.78-0.72 4.8-1.43 8.12-2.83 21.45-11.89 29.15-17.23 0.96-0.67 1.74-1.25 2.28-1.84s0.5-2.35-0.33-2.65c-1.68-0.61-3.8 0.11-5.66 0.49-3.73 0.76-7.68 2.02-11.63 3.47s-7.91 3.09-11.64 4.63c-1.87 0.77-3.69 1.51-5.42 2.2-0.86 0.34-1.91 0.71-2.23 0.89-0.16 0.09 0.18 1.99 0.32 2.01 0.14 0.03 0.45 0.02 0.69 0 1.87-0.2 7.33-1.39 12.51-3.63 5.19-2.24 8.43-5.55 10.01-7.24 0.78-0.85 0.23-3.02-1.19-2.68-1.41 0.34-3.97 1.42-9 3.78-5.04 2.37-6.13 3.07-8.5 4.4-2.38 1.33-4.71 2.59-5.8 2.96s-0.15 1.23 0.44 0.64c0.58-0.59 1.97-1.68 3.61-3.01 3.26-2.65 7.59-6.37 9.47-10.72 1.87-4.35-2.11-5.43-7.14-5.19-2.51 0.13-5.28 0.65-7.63 1.96s-2.68 1.63-4.38 2.43c-3.39 1.62-7.65 6.93-7.04 9.57 0.3 1.33 2.23 2.74 4.61 0.98 0.6-0.44 1.25-1.03 2-1.82 0.74-0.79 2.11-2.49 2.21-2.62 0.2-0.26 0.52-0.65 0.93-1.15 3.3-3.99 12.32-14.57 15.68-21.35 1.69-3.39 0.14-5.68-1.4-4.27-1.53 1.4-4.11 4.35-7.35 7.82-3.24 3.46-7.09 7.42-11 10.69-3.9 3.27-7.03 4.46-11.13 7.69-2.05 1.61-4.2 3.41-4.86 5.14-0.66 1.74 2.13 2.44 3.14 2.03 2.02-0.82 6.4-3.22 10.82-5.25 1.11-0.5 2.21-0.99 3.27-1.41 0.53-0.22 1.05-0.42 1.55-0.6s-0.66-1.1-0.66-1.09c-0.01 0.03-0.75 0.63-2.13 1.81-2.74 2.36-7.36 6.31-10.8 10.12-3.45 3.82-5.37 8.39-3.42 8.86 1.94 0.47 4.8-1.01 8.79-3.01 7.99-3.99 19.2-10.85 24.83-14.27 2.82-1.72 4.68-3.16 3.76-1.37-0.23 0.45-0.88 1.25-2.11 2.36s-4.37 3.47-4.98 3.92c-1.23 0.89-3.23 2.38-5.22 4-3.97 3.25-8.39 7.82-5.36 8.7 3.04 0.89 4.45-0.61 7.56-1.97 6.23-2.71 15.87-7.39 23.6-9.69 3.87-1.15 3.31-1.72 1.45-0.13s-5.21 4.22-9.01 7.23c-7.61 6.03-17.03 13.57-20.63 17.9-1.8 2.16 0.3 1.49 2.58-0.23 2.27-1.73 5.75-4.5 9.6-7.55 7.7-6.12 17.96-14.68 16.62-12.01-0.34 0.67-1.86 2.31-5.31 5.07-1.73 1.38-3.14 2.38-3.34 2.78s-0.29 0.9-0.17 1.37c0.25 0.95 1.43 1.54 3.72 0.55 2.28-0.98 5.95-3.9 6.92-4.69 3.86-3.13 16.7-12.22 18.61-8.89l-0.01-0.01c0.19 0.31-5.45 3.05-9.4 8.93-0.99 1.47-2.25 3.97-2.28 4.46-0.03 0.48 0.92 0.21 2.06-0.53 2.26-1.46 6.09-4.44 8.65-5.89 2.56-1.46 3.48-0.53 1.17 1.2-2.31 1.74-6.77 4.31-6.17 5.06s4.72-0.85 7.06-2.16 4.37-2.36 5.88-0.61l0.01-0.04c-7.23 2.66-2.69-3.11 0.01 0.02-2.69-3.15-7.24 2.68 0.01 0.03l-0.01-0.07 0.02 0.02c-1.5-1.76-3.62-0.74-5.97 0.56s-6.38 2.81-6.89 2.16 3.82-3.07 6.17-4.81c2.34-1.74 1.2-3.03-1.4-1.57-2.61 1.46-6.45 4.43-8.7 5.87-1.12 0.72-1.62 1.14-1.6 0.78 0.03-0.36 1.27-2.86 2.25-4.3 3.92-5.79 9.76-8.81 9.5-9.29l-0.03-0.05 0.03 0.04c-2.85-5.1-15.4 5.57-19.31 8.68-0.97 0.78-4.64 3.66-6.81 4.59-2.17 0.92-2.77 0.41-2.92-0.18-0.07-0.3 0-0.68 0.14-0.95 0.07-0.14 0.15-0.24 0.23-0.3 0.09-0.06 2.08-1.58 2.95-2.28 3.49-2.77 5.02-4.32 5.5-5.25 0.97-1.87-1.99-1.08-5.78 1.83-3.79 2.9-8.02 6.24-11.88 9.28-3.86 3.05-7.35 5.8-9.62 7.5s-3.16 3.49-1.43 1.44c3.47-4.12 12.95-11.7 20.57-17.7s14.55-11.2 6.66-8.89c-7.88 2.31-17.56 6.99-23.76 9.65-3.09 1.33-5.25 2.33-6.76 1.88-1.5-0.45 1.89-3.38 5.82-6.57 1.96-1.59 3.94-3.06 5.16-3.94 0.61-0.43 3.81-2.83 5.1-3.99s2.03-2 2.4-2.72c0.75-1.44-0.89-2.35-2.08-2.12-1.2 0.23-2.11 0.89-3.52 1.74-5.65 3.4-16.88 10.24-24.77 14.15-3.95 1.95-7.39 2.97-7.82 2.86-0.43-0.12 0.84-2.73 4.19-6.43 3.35-3.69 7.94-7.61 10.69-9.96 1.38-1.17 2.46-2.13 2.58-2.41 0.03-0.07-0.79-1.14-1.32-0.95-0.52 0.19-1.06 0.39-1.6 0.61-1.09 0.44-2.22 0.93-3.34 1.44-4.5 2.05-9.04 4.49-10.77 5.18-0.87 0.35-1.31 0.81-1.02 0.05 0.3-0.75 2.38-2.88 4.36-4.43 3.94-3.09 7.19-4.35 11.19-7.69 4.01-3.34 7.91-7.33 11.17-10.81 6.53-6.96 9.06-11.8 5.91-5.51-3.14 6.29-12.17 16.96-15.5 20.97-0.42 0.5-0.74 0.89-0.97 1.18-0.11 0.14-1.42 1.76-2.11 2.49s-1.27 1.25-1.75 1.6c-1.9 1.4-1.54 0.78-1.69 0.1-0.3-1.36 2.8-5.92 6.03-7.45 3.24-1.52 6.67-3.96 11.29-4.18 2.31-0.11 4.44 0.18 5.52 0.5 1.08 0.33 0.54 0.15-0.26 2-1.6 3.69-5.71 7.35-8.93 9.97-1.61 1.3-2.96 2.32-3.77 3.14-0.81 0.81 0.09 3.15 1.61 2.64 1.51-0.51 3.75-1.77 6.13-3.1 2.39-1.33 3.38-1.98 8.38-4.33 5.01-2.34 7.68-3.4 8.63-3.63 0.95-0.22-0.13-1.38-0.78-0.68-1.31 1.4-4.4 4.62-9.33 6.74-4.94 2.13-10.57 3.32-11.91 3.45-0.17 0.02-0.14 0.02-0.14 0.02 0.01 0 0.35 1.85 0.35 1.85-0.01 0.01 1.11-0.42 1.99-0.76 1.75-0.69 3.57-1.44 5.44-2.21 3.74-1.53 7.68-3.16 11.58-4.58 3.89-1.42 7.75-2.64 11.32-3.36 1.78-0.37 4.56-0.56 4.51-0.57-0.03-0.01-0.23-1.12-0.51-0.8-0.29 0.31-1.01 0.89-1.93 1.52-7.32 5.06-20.81 14.22-28.64 16.95-1.96 0.68-3.54 1.11-4.57 1.35-0.52 0.11-0.91 0.18-1.08 0.2-0.09 0.01 0.04 0.02 0.05 0.02 0 0 0.39 1.96 0.38 1.96-0.03 0.03 7.42-1.81 11.46-2.31 8.07-0.99 12.58-0.48 22.66-4.18 5.04-1.86 10.98-4.28 14.99-5.72 2.01-0.72 3.67-1.18 4.03-1.2 0.37-0.03 0.04-1.92-2.03-0.01-4.14 3.84-8.68 7.73-11.85 9.96-3.18 2.22-3.86 3.87-2.44 1.54 1.43-2.33 7.32-7.2 11.4-10.48 2.04-1.65 3.52-2.73 4.25-3.67 0.37-0.47-0.94-2.17-1.56-1.96-0.62 0.2-2.35 0.86-3.44 1.33-8.75 3.82-12.63 8.93-19.26 13.56-0.41 0.29-2.17 1.46-3.07 1.99-0.9 0.52-1.64 0.89-2.23 1.13-1.17 0.47-1.66 0.36-1.61 0.38 0.11 0.05-0.94 1.18 1.2-0.8 4.28-3.97 9.3-7.86 13.36-10.96 4.07-3.1 6.97-4.82 7.93-6.6 0.48-0.89-1.44-2.14-2.89-1.65-1.46 0.48-3.42 1.4-5.7 2.55-4.55 2.32-10.28 5.58-14.72 8.02-2.21 1.22-4.11 2.24-5.32 2.81-0.61 0.28-1.1 0.46-1.14 0.47-0.05 0.01 0.96 1.46 0.96 1.46s2.25-2.32 4.11-3.77 4-2.92 6.18-4.32c4.35-2.8 8.8-5.33 11.47-7.02 1.33-0.85 2.44-1.62 2.71-2.3 0.13-0.33-0.14-2.25-1.05-2.78s-1.88-0.43-2.9-0.22c-4.08 0.83-8.19 2.94-13.98 5.56-5.78 2.63-10.96 6.48-12.67 7.43-0.42 0.23 0.63 0.66 0.64 0.67 0 0.01-0.28 1.15 0.49-0.01 1.56-2.32 3.74-4.17 5.95-5.59 2.22-1.41 4.45-2.41 6.07-3.06 0.81-0.33 1.46-0.57 1.91-0.75 0.23-0.09 0.44-0.18 0.61-0.28 0.17-0.11-0.11-2.05-0.25-2.09-1.11-0.3-7.22 1.11-11.66 2.81-4.45 1.71-8.99 3.75-11.96 4.81-0.75 0.26-1.39 0.46-1.89 0.58-0.24 0.06-2.63 0.6-3.72 0.81-1.09 0.2-2.01 0.34-2.79 0.43-3.11 0.35-2.95 0.19-2.96 0.24-0.02 0.11 2.63-2.67 7.19-4.87 4.56-2.21 10.64-4.86 14.23-6.69 1.79-0.92 3.48-2.29 3.42-2.93-0.03-0.31-1.2-1.17-2.18-1.1-0.99 0.06-2.05 0.18-3.19 0.36-4.53 0.69-10.12 2.15-15.2 3.47-10.17 2.63-16.64 5.12-10.61 0.71 3.02-2.21 8.39-4.67 12.41-5.94 2.02-0.64 3.77-0.95 4.45-0.9 0.69 0.05 4.53 0.08 7.26-0.64 5.45-1.43 10.91-3.82 11.82-5.82 0.23-0.5-0.86-1.78-1.61-1.74s-1.45 0.19-2.33 0.4c-1.75 0.41-3.94 1.11-6.36 1.94-9.69 3.36-24.08 8.69-24.19 8.67-0.01 0 0.46 1.12 0.51 1.04 0.05-0.07 0.97-1.06 1.65-1.69 1.36-1.25 2.88-2.36 4.49-3.37 3.23-2.02 4.42-2.22 13.13-6.63 8.72-4.42 4.73-6.24 2.38-5.19-1.18 0.53-4.15 2.95-6.75 4.36-2.61 1.41-5.08 2.39-7.16 3.04-2.08 0.64-3.77 0.96-4.75 1.03s-0.65 1.28-0.49 1.17c0.15-0.11 3.52-2.14 5.75-3.39 2.24-1.25 4.63-2.56 6.86-3.8 4.46-2.49 8.24-4.31 8.96-6.07 0.36-0.88-2.02-2.05-3.94-1.81-1.93 0.24-3.97 1.04-5.99 2.02-2.01 0.97-4.01 2.13-5.77 3.13s-1.41 1.2-5.79 2.7c-4.39 1.5-5.25 0.99-5.32 0.81-0.06-0.19 0.02-0.92 1.26-1.9 4.92-3.96 17.86-14.66 19.76-16.66 0.48-0.5-1.4-0.92-3.25-0.06-1.85 0.87-3.89 1.58-5.92 2.18-4.06 1.18-8.05 1.9-10.46 2.52-1.2 0.31-1.76 0.66-0.68-1.17 1.09-1.83 3.35-4.37 4.09-5.04 0.36-0.33 3.48-2.62 4.93-3.8 1.46-1.19 2.29-1.98 2.76-2.55 0.92-1.16-0.82-1.89-1.98-1.41-0.58 0.24-1.19 0.55-1.67 0.83-0.49 0.29-4.03 2.33-5.34 2.91-2.62 1.16-1.97 1.21-1.82 0.96 0.31-0.5 7.19-4.36 10.52-6.45 1.66-1.05 1.97-2.66 0.49-1.6s-3.84 2.23-6.15 3.18c-2.32 0.95-4.62 1.7-5.98 1.98-1.35 0.27-1.25 1.11-0.21-0.18 2.08-2.58 5.76-5.79 8.98-9.31 1.61-1.76 1.79-3.21 0.08-2.67-1.72 0.54-4.61 1.14-7.01 1.52-2.41 0.37-3.79 1-3.76 0.86s2.97-2.27 4.71-3.58c1.74-1.3 1.49-1.27 3.86-2.33 2.36-1.07 4.94-3.06 5.34-3.61 0.39-0.54-3.31 0.78-5.65 1.47-2.34 0.7-4.81 1.08-6.87 1.26-2.05 0.18-3.72 0.14-4.31 0.03-0.6-0.1 1-0.8 2.17-2.26 0.59-0.73 1.14-1.4 1.71-1.99 0.57-0.58 0.15-0.39 2.54-1.99 4.77-3.2 6.3-4.24 6.64-4.54s-0.42-0.65-2.13 0.3c-1.7 0.95-4.86 2.44-6.15 2.82-1.29 0.39 0.24-0.18 2.49-1.22s5.29-2.65 4.26-3.07c-1.03-0.43-3.85 0.65-6.1 1.36-2.24 0.7-2.66 1.08-2.03 0.07 1.27-2.02 4.71-5.06 8.78-7.88 2.04-1.41 4.29-2.75 4.42-3.05 0.13-0.29-2.03 0.09-4.28 0.9-4.49 1.64-11.11 4.09-11.57 3.73-0.23-0.19 1.53-1.28 3.35-2.6 0.92-0.67 1.83-1.3 2.5-1.76 0.68-0.46 0.38-0.26 2.42-1.5 4.09-2.47 4.67-3.7 4.35-4.22-0.31-0.51-1.24-0.4-3.7 0.33s-5.13 1.94-4.39 1.43c0.36-0.25 3.29-1.94 4.4-2.81 1.11-0.88 1.61-1.54 1.73-2.06 0.49-2.09-3.86-0.92-8.22-0.39-2.19 0.27-2.64 0.45-1.09-0.87 1.56-1.32 3.31-2.76 4.43-3.67s3.73-2.8 5.55-3.69c1.81-0.9 2.21-1.21 1.44-1.24-1.54-0.08-5.76 2.82-9.46 4.58" transform="matrix(1.1822 0 0 1.1463 -107.2 -177.31)"/>
    <path d="m295.05 551.38c-0.77 9.31-5.36 33.35-4.82 45.18 0.13 2.96 1.4 6.14 1.83 4.78s1.09-5.67 1.91-10.92c1.66-10.49 4.11-23.53 4.91-22.84l-0.02-0.01c0.25 0.23-4.18 10.61-0.47 16.19 1.86 2.79 2.84 0.23 3.88-2.06 1.05-2.28 2.12-5.72 3.17-9.4 1.05-3.69 2.07-7.6 2.96-10.73s0.02-4.48 0.12-3.49c0.18 1.99-0.89 12.74-0.98 20.74-0.04 4 0.52 7.14 0.96 8.95s-0.63 6.86 0.51 9.67c0.57 1.41 3.19 1.48 3.84 1.02s1.01-1.15 1.37-2.02c0.7-1.75 1.23-4.35 1.68-7.52 0.91-6.34 1.44-14.9 1.78-22.41s0.38-12.01 0.6-17.18c0.06-1.29 0.12-2.14 0.16-2.48 0.05-0.35-1.88-0.23-1.84-0.06 0.07 0.34 0.28 2.47 0.52 5.32 0.48 5.71 1.24 14.92 2.56 23.58 1.32 8.65 3.93 17.37 5.99 20.29 2.05 2.92 7.27 7.11 6.34-10.17-0.24-4.32-0.23-3.85-0.29-5.22s-0.12-2.75-0.18-4.12c-0.12-2.76-0.27-5.54-0.57-8.38-0.6-5.7-1.79-11.69-4.53-18.3-1.37-3.31-2.59-5.65-3.15-6.02-0.14-0.09-1.84 0.7-1.85 0.92-0.02 0.21 0.01 0.54 0.07 0.81 0.1 0.56 0.3 1.3 0.59 2.25 1.16 3.84 3.74 11.02 6.94 18.85s6.99 16.29 10.59 22.65c1.8 3.19 3.88 6.49 5.76 5.21 0.94-0.63 1.77-1.85 2.27-3.8 0.25-0.98 0.41-2.15 0.45-3.54s-0.17-3.74-0.22-4.22c-0.4-3.86 0.35-9.04-0.63-15.46-0.49-3.21-1.42-6.73-3.15-10.56-1.72-3.84-1.93-4.46-2.23-5.95s-1.86-1.6-1.11-0.56c0.74 1.03 2.51 4.57 5.39 11.88 0.72 1.83 2.12 5.51 2.3 5.98s0.37 0.99 0.57 1.54c0.41 1.09 0.87 2.32 1.42 3.61 1.08 2.59 2.49 5.44 4.43 8.02 1.94 2.59 5.9 5.65 7.61 6.4 1.7 0.76 2.65-1.66 2.62-4.14-0.06-4.95-2.18-13.63-7.11-20.1-2.47-3.24-3.08-3.52-4.09-4.79-1-1.27-1.74-2.27-1.76-2.32 0-0.02-1.06 0.66-1.02 0.68 0.05 0.03 0.22 0.17 0.45 0.41 0.47 0.46 1.26 1.29 2.41 2.6 2.31 2.6 6.13 7.07 12.08 14.26 2.98 3.59 3.21 2.07 3.23 1.53 0.03-0.54-0.05-1.34-0.19-2.41-0.29-2.16-0.9-5.35-1.76-8.87-0.87-3.51-2-7.34-3.35-10.78-1.36-3.43-3.74-7.4-4.62-8.35-1.77-1.89-0.69 3.95 2.59 10.3 3.27 6.34 9.29 16.93 11.72 14.7 0.6-0.56 0.94-1.7 0.29-3.68-0.65-1.97-2.54-4.83-3.55-6.36-2.02-3.06-3.89-5.78-5.65-8.11-3.52-4.66-6.63-7.81-9.47-9.14l-0.56-0.11 0.44 0.28c9.79 9.16 4.65 2.09 0.07-0.07 4.55 2.23 9.8 9.11 0.07-0.08l-0.12 0.17c2.82 1.4 5.77 4.53 9.22 9.21 1.73 2.34 3.57 5.07 5.56 8.14 0.99 1.54 2.83 4.39 3.43 6.25 0.6 1.87 0.23 2.69-0.16 3.03-1.54 1.34-7.36-8.29-10.56-14.61-3.19-6.31-5.33-10.66-4.07-9.24 0.64 0.72 3.04 4.69 4.35 8.07 1.3 3.39 2.39 7.18 3.22 10.66s1.4 6.65 1.66 8.75c0.13 1.04 0.17 1.84 0.15 2.18-0.03 0.33 2.06 1.3-0.91-2.31-5.94-7.21-9.74-11.7-12.05-14.34-1.16-1.32-1.94-2.18-2.45-2.7-0.25-0.25-0.43-0.42-0.6-0.55-0.18-0.14-1.33 0.53-1.32 0.63 0.03 0.39 1 1.82 2.01 3.13 1.02 1.32 1.72 1.75 4.02 4.81 4.62 6.11 6.66 14.68 6.67 19.15 0.01 2.23-0.03 2.57-0.17 2.5-0.06-0.04-2.66-1.53-3.8-2.53-1.15-1-2.16-2.14-3.06-3.34-1.8-2.42-3.13-5.14-4.17-7.65-0.52-1.26-0.96-2.46-1.36-3.55-0.2-0.55-0.38-1.07-0.56-1.55s-1.58-4.17-2.3-6.02c-2.89-7.36-4.53-10.83-5.59-12.32-1.05-1.49-2.8 0.38-2.46 2.1 0.67 3.45 4.38 10.34 5.29 16.43 0.91 6.1 0.13 11.06 0.56 15.37 0.11 1.07 0.23 5.41-0.19 7-0.41 1.6-1.06 2.33-1.39 2.55s0.74 0.96-0.09-0.28c-0.82-1.23-1.68-2.65-2.55-4.21-3.51-6.23-7.28-14.64-10.44-22.42-3.17-7.78-5.74-14.96-6.85-18.65-0.28-0.92-0.47-1.64-0.54-2.03-0.04-0.19-0.04-0.21-0.04-0.19 0 0.01-1.62 0.75-1.63 0.74-0.04-0.02 1 1.83 2.32 5.02 2.65 6.39 3.79 12.12 4.38 17.67 0.29 2.78 0.44 5.51 0.56 8.25 0.07 1.37 0.12 2.74 0.19 4.12 0.06 1.38 0.06 0.99 0.29 5.24 0.93 17.02-0.22 11.73-2.31 8.78-2.1-2.95-4.33-10.81-5.65-19.35-1.32-8.55-2.1-17.72-2.6-23.43-0.25-2.85-0.38-4.7-0.6-5.6-0.1-0.45-2.16-0.27-2.22 0.25-0.07 0.52-0.11 1.35-0.16 2.67-0.2 5.24-0.22 9.69-0.53 17.18-0.3 7.48-0.82 16.01-1.67 22.23-0.86 6.21-2.16 11.07-3.38 8.11-0.61-1.48 0.23-6.61-0.49-9.42-0.71-2.81-0.98-4.58-0.96-8.51 0.05-7.86 1.15-18.04 0.84-20.91-0.16-1.44-2.19 0.09-3.07 3.24-0.87 3.16-1.87 7.08-2.88 10.75-1.02 3.66-2.08 7.09-3.03 9.24-0.48 1.07-0.97 1.82-1.25 2.06s0.37 0.95-0.39-0.16c-3.02-4.45 1.05-15.63 0.14-16.32h-0.01l-0.01-0.02c-2.83-2.21-4.85 13.06-6.42 23.57-0.78 5.26-1.43 9.69-1.76 10.84-0.32 1.15-0.38-1.69-0.55-4.6-0.71-11.62 3.67-35.83 4.23-45.15" transform="matrix(1.1822 0 0 1.1463 -107.2 -177.31)"/>
    <path d="m468.25 407.51c-1.3-0.47-0.78-1.79-1.43-2.58-0.32-0.39-0.94-0.64-2.23-0.57-1.28 0.07-3.64 0.61-4.03 0.76-1.54 0.61 3.68 0.91 8.36 1.73 2.35 0.41 4.54 0.88 3.43 0.84-1.12-0.04-3.78-0.17-5.99 0.36-2.21 0.54-2.14 1.32 0.21 1.15 2.36-0.17 5.6-0.51 5.49 0.31s-3.13 2.33-5.43 2.78c-2.31 0.45-4.57 0.46-5.54 0.49-1.95 0.07 2.46 0.8 4.16 1.23 0.86 0.21 1.21 0.14-0.22 0.34-0.72 0.1-1.89 0.2-3.67 0.28-0.89 0.04-1.93 0.08-3.15 0.11-1.21 0.03-3.47 0.07-3.96 0.08-3.98 0.06-2.99 0.68 0.26 1.1 3.24 0.43 8.71 1.01 13.62 1.75 4.9 0.74 10.26 1.6 9.57 2.05-0.68 0.45-8.43 1.51-11.44 2-1.51 0.25-1.79 0.94 0.5 0.86 2.28-0.07 4.62-0.21 5.34 0.03 0.73 0.24 1 0.28-0.12 0.96-0.56 0.34-1.52 0.75-2.98 1.21-1.46 0.47-5.21 1.37-5.81 1.5-2.41 0.52-9.49 1.92-11.22 1.78-1.72-0.14 3.96-2.07 8.12-2.96 4.16-0.88 8.08-0.9 7.97 1.21v-0.01c-0.04 0.81-13.84 4.94-10.94 4.78 0.73-0.04 4.4-0.7 4.5-0.7 0.11 0.01-0.56-0.52-1.16-0.13-1.19 0.79-2.26 2.75 2.16 3.2 2.21 0.22 7.3 0.09 8.49 0.07 1.18-0.01 1.93 0.06 2.17 0.13 0.46 0.14-0.15-0.25-1.93 0.3-3.57 1.09-11.12 2.73-18.02 4.22-6.9 1.5-13.32 3.06-14.6 3.44-0.32 0.1 0.08 1.09 0.55 0.98s1.28-0.3 2.34-0.55c2.12-0.49 5.26-1.2 8.69-1.86 6.88-1.31 15.09-2.35 18.28-1.29 1.6 0.53-0.43 0.02-3.09 0.97-2.65 0.96-6.18 2.09-8.42 2.99-2.23 0.91-2.9 2.7-0.07 2.68 1.41 0 3.68-0.18 7.12-0.58 1.72-0.19 0.77-0.79 0.76-0.75s0-0.13-0.43 0.08c-1.7 0.81-6.45 1.97-8.18 0.91-1.74-1.06-2.54-1.37 0.5-1.67 1.53-0.15 4.93 0.41 6.12 0.32 1.19-0.08 2.92-0.37 4.61-0.64 3.37-0.54 5.9-2.08 3.87-0.72s-4.18 1.61-7.11 2.27c-2.93 0.67-6.44 1.82-5.75 3.21 0.34 0.69 1.64 1.2 3.87 1.66 1.11 0.22 3.03 0.51 3.2 0.54s0.25-1.35 0.17-1.35c-0.3 0.01-2.9-0.24-3.88-0.04-0.49 0.11-0.07 1.6 1.25 1.88s3.66 0.69 7.6 1.29c1.96 0.3 5.18 0.78 5.39 0.81 0.21 0.04-0.23-0.4-0.23-0.39 0 0 0.54-0.95 0.53-0.95-0.02 0.01-0.06 0.01-0.14 0.01-0.17 0.01-0.46 0.01-0.82 0-5.84-0.08-33.25-3.28-34.86 2.15l-0.01 0.02v0.01c-0.62 2.12 3.91 2.26 9.09 2.22s11.98-0.2 18.18 0.52 13.09 3.14 12.95 3.25c-0.13 0.11-5.56 1.91-11.82 3.09-6.26 1.17-13.7 2.11-18.98 1.86-5.29-0.25-9.58-1.88-3.15-3.84 6.43-1.95 15.54 2.06 16.82 3.24 0.32 0.29 0.51-0.55 0.14-0.42-0.38 0.14-2.14 0.24-2.84 0.22-1.39-0.05-5.37-0.24-9.02-0.23-3.64 0.01-7.79 0.45-7.77 1.93 0 0.74 1.74 1.84 2.33 2.01 0.58 0.16 1.39 0.29 2.41 0.41 4.08 0.46 11.48 0.64 17.42-0.32 2.97-0.48 5.57-1.2 7.3-2.52 0.87-0.65-0.1-2.24-0.96-2.28s-2.12 0.03-3.66 0.17c-6.17 0.53-16.77 1.84-16.78 1.83 0 0 0.01 1.67 0.2 1.6 0.18-0.07 0.61-0.2 1.25-0.37 1.27-0.33 4.31-1.07 4.76-1.1 0.89-0.06 3.23 0.77 3.23 0.78s0.08 0.25-1.16 1.11c-0.62 0.43-1.51 0.94-2.73 1.51-1.21 0.57-3.62 1.53-3.93 1.64-1.23 0.45-4.2 1.38-6.89 1.54-5.38 0.32-6.04-1.63-0.55-0.59 5.48 1.05 11.1 6.79 11.64 7.71 0.14 0.22 0.89-0.89 0.59-0.92s-1.47-0.36-3.39-1.15c-0.96-0.39-2.13-0.9-3.53-1.53-1.4-0.64-3.88-1.8-4.18-1.94-0.59-0.26-1.35-0.51-2.12-0.74-0.77-0.22-1.53-0.41-2.1-0.53-0.29-0.05-0.5-0.09-0.75-0.11-0.24-0.01-0.93 1.81-0.79 1.92 0.54 0.42 2.62 1.1 8.22 2.74 2.81 0.82 8.25 2.35 8.24 2.35 0-0.01 0.13-1.81 0.13-1.81 0.01 0-0.04 0.01-0.29 0.01-0.99 0.02-3.52-0.17-6.49-0.77-2.97-0.59-6.43-1.59-9.46-3.12-1.51-0.77-2.91-1.67-4.1-2.71-1.19-1.03-0.55 0.57-0.56 0.58-0.1 0.09 23.98 5.42 31.88 6.17 0.99 0.09 1.82 0.04 2.07 0.05h0.03l-0.39-1.93s0.33-0.14 0.17-0.13c-0.66 0.06-2.73 0.14-5.46-0.01-5.47-0.31-15.35-2.38-19.9-5.2-2.27-1.41-4.83-4.52-5.04-5.61-0.22-1.09 1-0.51 3.44-0.13 4.9 0.75 13.16 3.03 18.91 5.3 2.88 1.14 5.18 2.36 5.91 3.06 0.72 0.7 1.2-0.11-1.02 0.3-4.43 0.81-9.42 0.84-14.51 0.31-5.1-0.53-10.29-1.61-15.13-2.98-2.42-0.68-5.22-1.61-6.89-2.21-0.42-0.16-0.72-0.27-0.91-0.34-0.09-0.03-0.15-0.06-0.17-0.07-0.03-0.01-0.39 2.11-0.39 2.11 0 0.01-0.02 0.09 0.7 0.33 2.86 1 10.63 3.85 17.68 6.94 7.06 3.09 13.03 7.76 13.01 7.62v-0.01-0.04c0-0.01 0.35-0.68-0.55-0.56s-2.3 0.19-4 0.17c-3.41-0.03-8.08-0.37-12.88-1.08-4.81-0.71-9.76-1.8-13.75-3.29-0.99-0.38-1.93-0.77-2.78-1.2-0.43-0.21-0.21 1.82-0.22 1.82 0 0.01-0.39 0.12-0.29 0.12 0.4 0.01 1.92 0.18 3.89 0.49 7.88 1.24 24.66 6.08 25.51 7.49 0.43 0.7-0.52 0.64-3.97 1.43-3.45 0.8-8.41 1.34-12.89 0.5-8.95-1.68-12.25-12.71-10.57-13.25 1.69-0.54 15.51 6.02 19.83 9.63 1.08 0.9 2.17 1.82 2.71 2.39 0.54 0.58 1.19-0.76 0.93-0.76-0.27 0-2-0.41-4.97-1.55-2.97-1.13-9.13-3.84-10.53-4.35-5.58-2.02-22.26-7.03-23.71-0.05-0.72 3.49 3.02 5.65 6.99 7.86 3.98 2.21 8.88 4.16 12.6 5.24 3.72 1.09 5.95 0.89 8.36 1.1 1.2 0.11 2.04 0.24 2.79 0.17 0.38-0.04 0.94-1.93 0.63-2.15-0.3-0.22-0.7-0.39-1.31-0.62-1.21-0.47-3.32-1.18-6.77-2.3-3.44-1.12-10.88-3.47-11.48-3.68-1.21-0.43-2.47-1.09-2.46-1.08 0 0-0.59 1.69-0.6 1.69 0 0-0.36 0.01-0.34 0.02 0.04 0.01 0.27 0.08 0.63 0.21 0.71 0.28 1.95 0.81 3.88 1.69 3.86 1.76 10.47 4.95 21.25 10.39 1.35 0.68 2.43 1.22 2.42 1.22l0.39-1.91c0.01 0 0.21-0.02-0.04-0.07-0.48-0.11-1.43-0.34-2.7-0.66-2.53-0.64-6.39-1.61-10.87-2.61-8.96-2.01-20.4-4.15-29.02-3.96-4.32 0.1-2.04 2.48 0.32 3.15 2.35 0.67 6.18 1.52 10.79 2.24 9.2 1.45 20.94 2.07 30.74 0.36 4.9-0.85 10.01-1.62 11.42-1.12 1.41 0.51 0.47 1.94-1.69 3.09-4.34 2.3-15.5 4.61-23.89 5.25-8.4 0.64-12.86-0.66-19.43-0.87-3.28-0.11-6.71-0.39-10.48-1.53-1.89-0.57-3.87-1.35-5.95-2.44-1.05-0.55-2.38-1.33-2.57-1.47-0.2-0.14-0.01 0.58-0.01 0.57 0.01-0.05 8.73 1.81 18.53 5.62 9.81 3.81 17.77 9.54 20.81 6.08 1.53-1.73-1.31-4.3-9.31-7.7-2-0.85-5.1-2.01-5.66-2.26-0.57-0.26-1.14-0.61-1.66-0.99-1.05-0.76-1.9-1.76-2-1.96-0.09-0.19-0.99 0.5 0.3 1.18 1.28 0.69 3.66 2.31 7.44 5.33 3.77 3.01 4.71 3.81 6.29 4.81 1.57 1 3.23 1.88 4.95 2.65 3.43 1.54 7.08 2.63 10.7 3.3 1.81 0.34 3.62 0.57 5.39 0.7s4.17-0.47 4.14-0.91c-0.16-1.8-5.87-7.27-13.37-12.93s-18.34-12.64-21.91-10.4c-0.89 0.56-1.02 2.22 0.64 3.48 0.83 0.63 2.06 1.34 3.88 2.18 1.82 0.83 5.16 2.11 6.21 2.46 4.2 1.41 10.07 2.33 13.69 3.23 7.26 1.81-3.02 3.37-10.86 3.74s-15.53-0.74-21.06-1.16c-2.76-0.21-4.55-0.21-5.96-1.06-1.42-0.85-2.17-1.1 3.58-1.2 2.88-0.05 9.54 0.54 11.91 0.72 2.37 0.17 4.53 0.18 6.41 0.27 3.75 0.17 6.76 2 7.23 3.08l-0.01-0.02c0.11 0.25-6.59 0.46-14.07-0.07-3.74-0.27-7.5-0.83-10.33-1.78-2.82-0.96-2.31-0.02-0.24 0.08 4.16 0.22 13.54 1.36 19.71 4.03 1.54 0.67 2.88 1.43 3.89 2.28 0.5 0.42 0.11-0.51 0.01-0.46-0.09 0.06-0.41 0.18-0.87 0.29-1.82 0.42-5.81 0.84-10.14 1.23-8.66 0.76-19.34 2.18-16.91 2.88 2.43 0.71 15.88-0.05 18.61 1.05 5.48 2.22-27.17 6.61-26.7 3.14v0.02c0.09-0.72 23.94-7.4 23.38-4.52v-0.01c-0.11 0.58-9.2 3.49-16.67 1.12-1.87-0.59-2.84-0.97-1.61-1.41s3.86-0.69 5.69-0.48c3.65 0.43 0.87 1.97-2.11 3.23-2.98 1.25-6.27 3.42-2.1 6.03s0.77 1.56-2.75 2.61c-7.03 2.1-18.95 4.21-18.5 0.75v0.01c0.07-0.62 11.3-6.51 17.46-6.83 3.08-0.16 3.86 1.06 0.82 2.34-3.03 1.29-7.98 2.36-10.01-0.6l-0.04 0.06c13.28-0.38 3.14 4.52 0-0.04 3.11 4.57 13.3-0.39 0-0.04h-0.04l0.01 0.06c2.03 2.98 7.07 1.96 10.13 0.68 3.07-1.28 2.25-2.78-0.88-2.63-6.26 0.3-17.59 6.15-17.71 6.96v0.06-0.06c-0.62 4.51 11.79 1.69 18.86-0.38 3.54-1.04 6.88-0.76 2.86-3.28-4.01-2.53-0.89-4.08 2.06-5.3 1.47-0.61 1.6-0.04 3.38-1.44s0.53-2.43-1.39-2.66c-1.91-0.23-4.53-0.01-5.91 0.48s-0.3 1.75 1.62 2.37c7.7 2.47 17.18-0.4 17.41-1.48v-0.01c1.1-5.33-24.41 2.77-24.66 4.29l0.01-0.1-0.01 0.11c-0.53 3.63 8.58 2.76 16.18 1.69 3.8-0.53 7.33-1.24 9.36-1.85 2.04-0.61 4.03-2.91 2.18-3.67-1.84-0.76-5.86-0.64-9.61-0.63-3.74 0.02-8.36-0.29-9.06-0.51-1.42-0.43 8.05-0.3 16.73-1.04 4.34-0.38 8.3-0.77 10.29-1.22 1.99-0.46 0.35-2.64-2.85-4.04-6.41-2.8-15.79-3.93-20.06-4.17-2.13-0.12-3.16 1.05-0.18 2.07s6.81 1.59 10.61 1.87c7.59 0.56 15.71-0.46 15.28-1.53l-0.02-0.01h0.01c-1.91-4.47-4.45-3.66-8.28-3.85-1.92-0.1-4.06-0.11-6.38-0.29-2.31-0.17-9.04-0.78-12.02-0.73-5.95 0.09-6.05 2.51-4.25 3.61 1.8 1.09 3.83 1.06 6.55 1.28 5.43 0.43 13.21 1.58 21.22 1.22 4.01-0.17 8.08-0.73 11.96-1.97 3.88-1.23 2.96-3.67-0.8-4.61-3.75-0.95-9.6-1.88-13.57-3.22-0.99-0.34-4.3-1.61-6.06-2.42s-2.9-1.48-3.59-2.01c-1.36-1.04-1.05-0.78-0.74-0.97 0.3-0.19-0.23-0.63 1.82 0.04 2.05 0.68 4.16 1.58 6.26 2.65 4.19 2.12 8.36 4.89 12.05 7.68 7.37 5.59 12.68 11.62 12.68 11.79 0 0.02 1-0.74 0.17-0.75-0.83-0.02-1.68-0.06-2.53-0.13-1.71-0.13-3.46-0.36-5.21-0.69-3.5-0.66-7.03-1.72-10.32-3.2-1.64-0.74-3.23-1.59-4.72-2.54-1.5-0.96-2.32-1.67-6.13-4.72-3.82-3.06-6.22-4.71-7.7-5.51-1.49-0.8-3.12 0.2-2.7 1.1 0.84 1.79 2.34 2.74 10.2 6.09s8.75 4.79 8.67 4.88c-0.09 0.09-3.49 0.4-5.97-0.51-2.48-0.92-7.84-4.15-12.83-6.1-9.97-3.89-20.51-6.09-21.01-4.43-0.25 0.84 5.79 4.48 9.79 5.69 3.99 1.22 7.62 1.52 10.97 1.63 6.69 0.24 11.03 1.56 19.63 0.91 8.61-0.64 19.63-2.77 24.68-5.44 1.27-0.67 2-0.91 2.79-2.67 0.78-1.76 0.08-3.56-1.35-4.08-2.86-1.04-7.58 0.17-12.44 1.01-9.73 1.68-21.02 1.04-30.08-0.4-4.53-0.72-8.31-1.56-10.55-2.2-1.11-0.32-1.94-0.67-1.94-0.67-0.01-0.01-0.21 1.62-0.21 1.62-0.01 0.01 0.28 0.02 1.31-0.01 8.23-0.17 19.62 1.93 28.52 3.94 4.45 1 8.28 1.97 10.81 2.61 1.27 0.32 2.21 0.55 2.77 0.68 0.29 0.06 0.81 0.09 0.9 0.08 0.05-0.01 0.43-1.95 0.36-2-0.08-0.04-1.26-0.64-2.61-1.33-10.8-5.45-17.42-8.64-21.32-10.43-1.95-0.89-3.21-1.43-4-1.74-0.4-0.15-0.66-0.25-0.91-0.31-0.13-0.03-0.58-0.03-0.63-0.02s-0.65 1.73-0.61 1.79c0.33 0.4 1.98 1.25 3.41 1.76 0.71 0.25 8.1 2.58 11.54 3.7 3.43 1.12 5.55 1.83 6.66 2.26 0.55 0.22 0.83 0.36 0.81 0.35-0.01 0 0.45-1.79 0.44-1.79-0.04 0-1.17-0.06-2.39-0.17-2.43-0.22-4.4 0-7.94-1.03-7.06-2.06-18.35-9.02-18.03-10.54 0.16-0.76 3.59-1.5 8.27-1s10.03 1.79 12.51 2.69c1.25 0.45 7.46 3.18 10.49 4.35 3.03 1.16 4.56 1.68 5.74 1.69 1.19 0.01 1.46-2.22 0.73-3-0.74-0.78-1.83-1.67-2.9-2.57-4.31-3.61-16.27-11.87-21.95-10.05-2.84 0.9-2.13 6.01-0.04 9.84 2.08 3.84 5.94 6.82 10.88 7.75 4.93 0.92 10.12 0.33 13.8-0.51 3.69-0.85 7.02-2.11 5.4-4.79-3.24-5.37-19.06-7.29-27.09-8.55-2-0.31-3.41-0.5-4.19-0.52-0.39-0.01-1.47 1.87-0.54 2.33 0.94 0.46 1.94 0.89 2.99 1.28 4.22 1.58 9.3 2.69 14.21 3.41 4.91 0.73 9.65 1.08 13.19 1.11 1.77 0.01 3.23-0.05 4.32-0.2 1.08-0.14 2.54-1.21 2.49-1.76l0.01-0.02-0.01-0.03c-0.34-4.27-7.2-6.35-14.35-9.47-7.14-3.13-14.93-5.98-17.85-6.99-0.73-0.26-1.58-0.45-1.63-0.45-0.01 0-0.34 2.14-0.27 2.17 0.06 0.03 0.14 0.06 0.24 0.1 0.2 0.08 0.51 0.19 0.94 0.34 1.7 0.62 4.57 1.57 7.04 2.26 4.95 1.4 10.26 2.5 15.51 3.05 5.25 0.54 10.43 0.52 15.14-0.35 2.36-0.43 3.45-2.81 2.14-4.06s-3.65-2.34-6.62-3.51c-5.95-2.35-14.2-4.64-19.39-5.43-1.29-0.19-1.82-0.38-3.45-0.26s-2.73 1.67-2.46 2.99c0.52 2.62 3.31 5.35 6.04 7.03 5.45 3.37 15.26 5.2 20.92 5.51 2.83 0.15 4.89 0.08 5.79 0 0.22-0.03 0.78-0.2 0.82-0.24 0.03-0.01-0.38-1.96-0.46-1.97-0.07-0.01-0.21-0.03-0.31-0.03-0.42-0.01-1.06 0.04-1.94-0.04-7.06-0.66-29.86-8.62-33.43-5.66-0.89 0.74 1.79 3.98 5.06 5.64 3.28 1.65 6.89 2.68 10 3.3 3.1 0.62 5.64 0.83 6.95 0.8 0.33-0.01 0.69-0.05 0.89-0.11 0.21-0.07 0.34-1.96 0.11-2.07-0.46-0.22-5.75-1.64-8.54-2.46-5.57-1.63-7.55-2.39-7.55-2.38 0.01 0-0.59 1.79-0.58 1.79s0.21 0.02 0.45 0.07c0.48 0.1 1.22 0.28 1.93 0.48 0.72 0.21 1.44 0.45 1.87 0.64 0.22 0.1 2.75 1.29 4.16 1.93 1.42 0.64 2.61 1.16 3.6 1.56 1.98 0.81 3.1 1.21 3.98 1.29 0.89 0.07 1.73-1.55 1.36-2.17-0.74-1.23-1.12-1.8-3.77-4.28-2.65-2.47-6.24-3.79-9.26-4.36s-6.12-0.35-6.57 0.95c-0.22 0.66 1.11 2.49 2.46 3.05 1.35 0.55 2.89 0.65 4.41 0.56 3.05-0.18 6.1-1.17 7.46-1.67 0.34-0.13 2.81-1.1 4.09-1.71 1.28-0.6 2.26-1.15 3.01-1.68 1.5-1.04 2.29-2.28 1.89-3.39-0.8-2.22-3.72-2.18-5.22-2.08-0.75 0.05-3.8 0.82-5.13 1.17-0.67 0.18-1.12 0.31-1.45 0.44s-0.46 1.92-0.31 1.99c1.26 0.57 11.71-1.16 17.75-1.69 1.52-0.13 2.76-0.2 3.41-0.17s0.51-1.61-0.1-1.14c-1.22 0.93-3.62 1.7-6.45 2.16-11.32 1.84-28.38-0.26-14.08-0.33 3.57-0.01 7.51 0.17 8.95 0.22 0.73 0.02 2.55 0.02 3.52-0.34s1.14-1.99 0.46-2.61c-2.74-2.51-10.59-6.04-18.55-3.6-3.98 1.21-4.17 4.73-3.1 5.69s3.89 1.45 6.67 1.58c5.57 0.25 13.06-0.72 19.39-1.92s11.14-2.24 12.6-3.5c0.72-0.63-2.27-3.25-4.95-4.22-2.67-0.97-5.73-1.56-8.91-1.92-6.36-0.73-13.23-0.56-18.38-0.5-5.16 0.05-7.64 0.04-7.57-0.22l-0.01 0.02c0.19-0.67 27.35-1.18 33.35-1.12 0.38 0 0.67 0 0.89-0.01 0.11 0 0.21-0.01 0.29-0.02s0.67-0.98 0.66-0.99c-0.01-0.04-0.68-0.53-0.93-0.57s-3.44-0.51-5.4-0.81c-3.93-0.6-6.27-1-7.53-1.27-1.26-0.26-1.32 0.97-1.24 0.95 0.16-0.04 2.88 0.07 3.62 0.05 0.18-0.01 0.26-1.42 0.03-1.46-0.24-0.03-2.1-0.31-3.17-0.53-2.13-0.43-2.84-0.78-2.9-0.9-0.25-0.5 7.54-0.49 12.37-3.75 2.41-1.62-1.45-2.25-4.83-1.7-1.69 0.28-3.43 0.57-4.5 0.65-1.06 0.08-4.35-0.49-6.15-0.31-3.59 0.36-3.78 2.37-1.04 4.05 2.74 1.67 7.4 0.09 9.4-0.88 0.99-0.48 2.4-2.07-1.02-1.68-3.43 0.4-5.68 0.58-6.99 0.59-2.64 0.02-1.61 0.53 0.53-0.35 4.29-1.75 15.32-4.89 11.42-6.17-3.91-1.27-11.93-0.03-18.85 1.31-3.45 0.67-6.6 1.39-8.73 1.89-1.06 0.26-1.87 0.45-2.33 0.56-0.46 0.12-0.3 1.15-0.01 1.06 1.18-0.36 7.61-1.95 14.51-3.46 6.9-1.52 14.42-3.17 18.09-4.3 1.83-0.57 2.86-1.8 1.9-2.08-0.49-0.13-1.22-0.16-2.44-0.14-1.21 0.01-6.27 0.15-8.38-0.06-4.24-0.42-2.85-0.88-1.77-1.61 0.53-0.36 0.95-1.42 0.69-1.42-0.26 0.01-3.97 0.68-4.56 0.72-2.32 0.14 11.73-2.76 11.76-3.9v0.02-0.04c0.13-2.98-4.64-2.86-8.89-1.95-4.25 0.92-10.2 4.19-8.02 4.35s8.99-1.31 11.4-1.84c0.61-0.14 4.38-1.05 5.87-1.52 1.49-0.48 2.48-0.9 3.11-1.29 1.26-0.78 0.89-1.76-0.01-2.04-0.9-0.29-3.29-0.12-5.55-0.04-2.27 0.09-1.88 0.5-0.39 0.25 2.97-0.51 10.5-1.36 11.63-2.12 1.13-0.77-4.87-2.19-9.79-2.91-4.92-0.73-10.4-1.3-13.63-1.71-3.24-0.4-4.27-0.27-0.31-0.35 0.5 0 2.75-0.05 3.97-0.08s2.26-0.07 3.16-0.12c1.78-0.08 2.96-0.18 3.69-0.29 1.48-0.22 1.14-0.76 0.26-0.97-1.78-0.43-6.15-0.58-4.23-0.67 0.96-0.04 3.24-0.06 5.57-0.52s5.47-1.98 5.6-2.98c0.12-1.01-3.36-0.7-5.71-0.52-2.35 0.17-2.34-0.28-0.16-0.82 2.17-0.53 4.83-0.42 5.94-0.38 1.12 0.03-1.05-0.67-3.4-1.07-4.7-0.81-9.86-0.97-8.36-1.58 0.38-0.15 2.74-0.7 4.02-0.77 1.27-0.08 1.88 0.17 2.2 0.55 0.65 0.76 0.15 2.1 1.45 2.56" transform="matrix(1.1822 0 0 1.1463 -107.2 -177.31)"/>
  </g>
  <path fill="#fff" d="m279.65 260.41c-0.1 2.08-0.56 5.81-1 8.01-0.49 2.21-1.58 6.04-2.36 8.26-0.83 2.21-2.52 5.99-3.66 8.16-1.21 2.16-3.62 5.84-5.22 7.95-1.69 2.08-5.02 5.56-7.18 7.48-2.26 1.86-6.58 4.78-9.3 6.27-2.81 1.41-8 3.43-11.18 4.36-3.24 0.84-9.08 1.91-12.6 2.33-3.55 0.36-9.88 0.72-13.64 0.81-3.79 0.05-10.44-0.04-14.32-0.17-3.88-0.17-10.5-0.61-14.23-0.95-3.67-0.38-9.67-1.23-12.91-1.84-3.15-0.67-8.11-2.1-10.72-3.11-2.5-1.08-6.38-3.28-8.38-4.75-1.91-1.55-4.78-4.54-6.2-6.43-1.32-1.95-3.18-5.54-4.02-7.72-0.74-2.23-1.66-6.23-1.98-8.63-0.25-2.43-0.34-6.72-0.21-9.25 0.21-2.54 0.9-6.86 1.5-9.28 0.68-2.37 2.21-6.14 3.31-8.07 1.18-1.82 3.55-4.43 5.11-5.63 1.62-1.08 4.69-2.48 6.62-3.07 1.98-0.53 5.66-1.23 7.95-1.56 2.35-0.3 6.71-0.77 9.4-1.02 2.75-0.23 7.74-0.58 10.75-0.77 3.04-0.18 8.42-0.47 11.59-0.64 3.19-0.18 8.77-0.52 12.05-0.74 3.29-0.23 9.04-0.65 12.4-0.89 3.36-0.25 9.15-0.63 12.45-0.82 3.27-0.16 8.7-0.31 11.69-0.32 2.93 0.02 7.66 0.23 10.21 0.45 2.48 0.26 6.45 0.93 8.56 1.44 2.05 0.57 5.27 1.82 6.93 2.71 1.58 0.97 3.92 2.96 5.02 4.3 1.02 1.41 2.33 4.16 2.84 5.91 0.42 1.81 0.75 5.16 0.73 7.22z" fill-rule="non-zero"/>
  <g fill-opacity=".41" transform="matrix(1.1822 0 0 1.1463 -107.2 -177.31)">
    <path d="m317.65 411.09c-1.53 1.9-4.17 4.75-6.02 6.44l-0.02 0.02-0.01 0.01c-1.99 1.7-5.63 4.25-8.05 5.63l-0.02 0.01-0.02 0.01c-3.59 1.87-8.77 3.85-14 4.91-11.04 2.24-21.75 2.15-31.34 1.68-4.8-0.23-10.23-0.57-15.98-1.38-5.76-0.81-11.65-2.24-15.55-3.79l-0.02-0.01-0.03-0.01c-2.26-1-5.52-2.9-7.37-4.31l-0.03-0.02-0.02-0.02c-1.77-1.47-4.16-4.04-5.47-5.85l-0.03-0.02-0.01-0.04c-1.23-1.86-2.77-4.94-3.54-7.01l-0.01-0.03-0.01-0.03c-0.69-2.11-1.45-5.54-1.74-7.77v-0.01-0.03c-0.45-4.57 0.05-12.2 1.12-16.63v-0.01l0.01-0.04c0.27-0.97 0.68-2.16 1.13-3.33 0.6-1.53 1.23-2.97 1.8-4l0.02-0.02 0.02-0.05c1.17-1.86 3.15-4.06 4.66-5.23l0.04-0.04 0.03-0.01c1.65-1.12 4.25-2.28 5.97-2.8l0.03-0.01h0.02c5.99-1.57 16.82-2.34 24.15-2.75 2.97-0.16 7.27-0.36 10.36-0.5 3.09-0.15 7.12-0.37 12-0.73 1.43-0.11 8.65-0.75 16.9-1.28 4.12-0.27 8.53-0.51 13.52-0.35 5 0.16 10.8 0.84 14.18 1.74l0.06 0.02-0.03-0.01c1.89 0.57 4.58 1.71 5.99 2.54h0.02l0.02 0.02c1.56 1.04 3.45 2.85 4.31 4.02l0.01 0.03 0.02 0.01c1.08 1.71 1.97 4.26 2.17 5.42v0.02c0.18 1.86-0.06 2.71-0.73 1.01-0.01-0.02-0.07-0.37-0.19-0.81l0.01 0.04c-0.26-0.84-1.33-3.43-2.41-4.88l0.03 0.04c-0.77-0.91-2.78-2.68-4.12-3.47l0.04 0.03c-1.21-0.63-4-1.73-5.7-2.16l0.03 0.01c-2.19-0.48-5.96-1.05-9.15-1.17-3.19-0.13-6.12-0.14-8.87-0.03-5.48 0.23-9.32 0.56-9.89 0.6-5.04 0.38-19.93 1.5-26.4 1.93-6.4 0.42-12.11 0.72-18.41 1.22-3.16 0.25-5.97 0.54-8.89 0.89-2.91 0.35-6.4 1.02-8.22 1.52l0.07-0.02c-1.38 0.43-4.07 1.72-5.13 2.44l0.1-0.07c-1.02 0.8-3.07 3.09-3.93 4.44l0.05-0.08c-0.81 1.44-2.13 4.75-2.67 6.65l0.01-0.06c-0.95 3.87-1.48 11.63-1.11 15.6l-0.01-0.06c0.25 1.94 1.02 5.46 1.58 7.23l-0.02-0.06c0.63 1.73 2.21 4.89 3.21 6.42l-0.04-0.06c1.05 1.48 3.5 4.12 4.94 5.34l-0.05-0.04c1.49 1.15 4.81 3.1 6.77 3.98l-0.06-0.03c2.65 1.07 7.27 2.44 11.51 3.13s8.12 1.16 12.84 1.49c16.62 1.17 31.17 2.22 46.46-4.11 1.27-0.52 2.67-1.14 3.69-1.66l-0.05 0.03c2.02-1.13 5.81-3.72 7.66-5.27l-0.04 0.03c2.21-1.98 5.05-5.01 6.61-7.27 5.65-8.18 8.02-15.6 9.28-18.63 1.25-3.02 1.94-3.12 1.05 1.4-1.44 7.32-4.53 13.88-9.08 20.08"/>
    <path d="m207.89 394.09c-0.02-4.07 0.61-8.23 1.32-11.32l0.02-0.05c0.59-2.23 1.85-5.5 2.89-7.43l0.02-0.04 0.03-0.04c1.11-1.83 3.06-4.1 4.67-5.4l0.04-0.03 0.05-0.05c1.68-1.17 4.17-2.35 6.06-2.97l0.03-0.01 0.04-0.01c3.96-1.14 9.69-1.88 14.18-2.35 4.49-0.46 8.74-0.72 13.71-0.99 2.12-0.11 5.05-0.25 9.85-0.54 4.79-0.28 10.67-0.68 16.04-1.06 10.75-0.75 28.49-1.48 37.63 1.03l0.05 0.01c1.93 0.59 4.59 1.71 6.11 2.62l0.03 0.01 0.04 0.02c1.61 1.07 3.49 2.84 4.47 4.15l0.02 0.03 0.03 0.04c1.04 1.61 2.02 4.06 2.37 5.57l0.01 0.06c0.52 3.09 0.32 6.71-0.01 7.45-0.32 0.73-0.46 0.89-0.75-0.98-0.08-0.52-0.23-3.75-0.82-6.12l0.01 0.03c-0.38-1.25-1.49-3.69-2.38-4.92l0.03 0.04c-0.81-0.98-2.81-2.75-4.11-3.55l0.03 0.02c-1.24-0.68-4.01-1.79-5.71-2.26l0.03 0.01c-2.82-0.68-7.56-1.3-12.05-1.46-4.49-0.17-8.23-0.01-11.83 0.15-7.19 0.32-12.47 0.84-14.32 0.99-8.78 0.68-17.83 1.24-26.45 1.77-4.31 0.26-8.2 0.51-12.67 0.98-4.48 0.47-9.88 1.27-12.77 2.07l0.04-0.01c-1.48 0.47-4.13 1.74-5.31 2.56l0.06-0.05c-1.13 0.9-3.16 3.19-4.06 4.65l0.03-0.06c-0.84 1.54-2.15 4.84-2.69 6.81l0.01-0.04c-0.95 3.99-1.43 11.77-1.02 15.8l-0.01-0.04c0.23 1.69 0.83 4.51 1.38 6.43 0.09 0.32 0.18 0.62 0.27 0.88l-0.01-0.04c0.62 1.64 2.19 4.82 3.29 6.49l-0.03-0.05c1.05 1.44 3.5 4.09 5.05 5.38l-0.04-0.03c1.49 1.13 4.78 3.08 6.86 3.99l-0.05-0.02c3.87 1.54 11.55 3.23 17.92 4.03 6.37 0.79 12.2 1.05 19.52 1.15s13.14 0.06 19.52-0.93 13.82-3.35 17.83-5.41l-0.03 0.02c2.27-1.28 5.93-3.84 7.69-5.33l-0.03 0.03c2.82-2.56 6.04-6.25 8.37-9.9 2.33-3.66 3.66-6.77 4.68-9.34 2.06-5.13 2.57-9 2.72-9.71 1.98-8.89 2.33-3.78 0.96 3.33-1.37 7.12-6.23 16.72-7.5 18.65-2.26 3.43-5.15 6.51-7.59 8.77l-0.02 0.01-0.01 0.02c-1.99 1.72-5.62 4.27-8.04 5.66l-0.01 0.01-0.03 0.01c-4.73 2.49-12.63 4.86-18.96 5.85s-12.23 1.06-19.33 0.99-13.2-0.32-19.37-1.04c-6.17-0.71-14.49-2.35-19.32-4.26l-0.02-0.01-0.04-0.01c-2.28-1.01-5.54-2.91-7.42-4.33l-0.03-0.02-0.03-0.03c-1.79-1.49-4.18-4.05-5.51-5.89v-0.03l-0.04-0.03c-1.25-1.89-2.79-4.96-3.57-7.06l-0.01-0.02-0.01-0.04c-0.7-2.13-1.45-5.56-1.75-7.81v-0.02-0.03c-0.14-1.41-0.22-3.34-0.23-5.18"/>
    <path d="m325.9 395.55c-2.32 7.35-8.34 16.72-14.18 22.08l-0.02 0.03-0.01 0.01c-2.05 1.75-5.68 4.28-8.07 5.64l-0.01 0.01-0.04 0.01c-1.59 0.83-3.87 1.8-6 2.61-12.82 4.86-24 4.23-35.84 3.94-5.91-0.14-11.1-0.43-17.18-1.24-6.08-0.8-13.33-2.35-17.84-4.18l-0.01-0.01-0.03-0.01c-1.77-0.8-4.24-2.21-6.09-3.47-0.44-0.3-0.85-0.59-1.21-0.87l-0.04-0.04v0.01c-1.66-1.41-4.07-3.99-5.39-5.84v-0.01l-0.03-0.03c-1.17-1.79-2.72-4.88-3.49-6.97l-0.01-0.02v-0.02c-0.66-2.04-1.43-5.49-1.71-7.71l-0.01-0.04c-0.43-4.46 0.06-12.16 1.09-16.52v-0.02l0.01-0.02c0.6-2.2 1.88-5.47 2.86-7.28l0.02-0.03 0.01-0.03c1.1-1.78 3.08-4.05 4.55-5.23l0.04-0.02 0.02-0.03c1.61-1.13 4.22-2.33 5.89-2.89h0.02l0.02-0.01c1.14-0.33 2.76-0.69 4.25-0.99 9.6-1.94 16.29-2 25.43-2.52 9.15-0.53 16.91-1.07 26.44-1.73 3.38-0.24 8.77-0.68 15.37-0.85 3.3-0.09 6.34-0.04 9.81 0.16 3.47 0.21 7.3 0.82 9.93 1.5h0.03l0.02 0.01c1.92 0.56 4.56 1.64 6.13 2.54l0.03 0.01 0.03 0.03c1.59 1.03 3.5 2.77 4.52 4.1l0.04 0.03 0.01 0.04c1.05 1.57 2.05 3.98 2.44 5.57l0.01 0.03 0.01 0.03c0.56 3.03 0.5 6.77 0.07 7.76-0.44 0.98-1.12 0.64-0.99 0.31 0.07-0.18-0.05-0.23-0.16-1.57s-0.44-4.37-0.9-6.05l0.01 0.04c-0.41-1.23-1.57-3.68-2.4-4.79l0.05 0.05c-0.79-0.92-2.81-2.69-4.04-3.43l0.05 0.03c-1.19-0.63-3.98-1.75-5.64-2.21l0.04 0.01c-3.36-0.8-10.46-1.48-15.2-1.54-4.73-0.07-9.89 0.23-15.3 0.58-10.82 0.71-18.44 1.27-23.29 1.59-6.18 0.39-11.38 0.64-18.02 1.17-3.32 0.26-6.06 0.53-9.26 0.92-3.2 0.38-6.69 1.03-8.84 1.63l0.05-0.01c-1.51 0.48-4.08 1.71-5.24 2.52l0.07-0.05c-1.11 0.88-3.13 3.18-4 4.57l0.04-0.06c-0.8 1.47-2.14 4.83-2.67 6.75l0.02-0.05c-0.93 3.88-1.44 11.73-1.04 15.71v-0.04c0.25 1.95 1.04 5.5 1.62 7.27l-0.02-0.05c0.65 1.74 2.25 4.92 3.26 6.45l-0.04-0.05c1.08 1.49 3.55 4.14 5 5.36l-0.05-0.04c1.53 1.17 4.84 3.12 6.81 4l-0.05-0.02c1.91 0.76 5.66 1.91 8.22 2.53 6.24 1.5 19.69 2.87 32.79 3.07 13.1 0.21 25.52-2.28 31.94-5.04 0.77-0.33 1.5-0.66 2.1-0.96l-0.01 0.01c2.15-1.19 5.88-3.75 7.82-5.39l-0.01 0.01c2.09-1.9 4.89-4.78 6.78-7.48s3.5-5.31 4.79-8.05c2.59-5.5 3.68-9.51 4.32-10.59 1.02-1.72 0.94 2.15-1.29 7.71"/>
    <path d="m325.61 397.19c-0.77 2.71-7.75 14.59-11.26 18.28-0.86 0.9-1.69 1.73-2.42 2.4l-0.04 0.04c-2.09 1.78-5.69 4.3-8.12 5.67l-0.02 0.01-0.03 0.02c-5.1 2.65-13.45 4.98-19.59 5.85-6.13 0.87-12.18 0.9-19.12 0.78s-12.94-0.43-18.95-1.16c-6.02-0.73-14.48-2.38-19.45-4.37l-0.02-0.01-0.03-0.01c-2.24-0.99-5.5-2.89-7.39-4.33l-0.01-0.02-0.04-0.02c-1.61-1.35-3.77-3.63-5.15-5.42-0.12-0.16-0.23-0.3-0.34-0.45h0.01l-0.04-0.05c-1.33-2.01-2.84-5.1-3.57-7.03v0.01l-0.02-0.07c-0.76-2.3-1.49-5.74-1.77-7.78v-0.03-0.02c-0.6-5.62 0.13-12.98 0.96-16.71l0.01-0.02 0.01-0.03c0.62-2.37 1.83-5.54 2.84-7.46l0.02-0.04 0.03-0.05c1.11-1.84 2.98-4.07 4.66-5.44l0.04-0.03 0.07-0.05c1.57-1.12 4.02-2.33 6.07-3l0.02-0.01 0.05-0.02c5.28-1.52 15.21-2.58 24.81-3.17 5.95-0.37 14.04-0.69 21.22-1.11 7.19-0.41 14.39-0.95 21.73-1.2 3.1-0.11 6.58-0.29 11.11-0.16 4.52 0.13 9.46 0.7 12.68 1.47h0.01l0.05 0.02c2.02 0.56 4.7 1.64 6.26 2.52l0.05 0.03 0.04 0.03c1.41 0.89 2.84 2.2 3.79 3.23 0.31 0.34 0.6 0.67 0.84 1.01l0.05 0.05 0.03 0.04c1.04 1.63 2.02 4.12 2.35 5.78l0.01 0.03 0.01 0.04c0.55 3.89-0.19 7.73-0.63 7.32-0.49-0.44-0.85-4.13-1.71-6.79l0.02 0.05c-0.46-1.21-1.64-3.63-2.5-4.73l0.05 0.07c-0.79-0.89-2.82-2.64-4.04-3.36l0.06 0.04c-1.17-0.6-3.94-1.71-5.6-2.15l0.05 0.01c-3.7-0.86-11.52-1.56-16-1.51-4.47 0.05-10.09 0.32-14.58 0.65-10.13 0.74-18.3 1.44-29.07 2.07-5.38 0.31-11.2 0.67-15.38 1.03-4.18 0.35-11.55 1.34-14.74 2.21l0.06-0.02c-1.4 0.44-4.08 1.73-5.16 2.46l0.09-0.06c-1.04 0.82-3.09 3.12-3.95 4.48l0.05-0.08c-0.81 1.48-2.13 4.79-2.66 6.68l0.02-0.05c-0.58 2.4-1.23 6.12-1.27 9.3-0.03 2.08 0.06 4.78 0.22 6.32l-0.01-0.05c0.25 1.93 1.04 5.48 1.61 7.22l-0.02-0.06c0.63 1.71 2.23 4.91 3.22 6.41l-0.04-0.06c1.05 1.46 3.52 4.12 4.95 5.32l-0.06-0.05c1.5 1.15 4.81 3.1 6.76 3.98l-0.05-0.03c3.97 1.6 11.58 3.27 17.67 4.07 6.09 0.79 11.38 1.09 17.95 1.25 13.16 0.33 24.1 0.31 36.03-4.6 1.16-0.48 2.25-0.96 3.07-1.37l-0.03 0.02c2.21-1.19 5.93-3.69 7.84-5.21l-0.03 0.01c2.96-2.54 6.6-6.61 9.23-10.65 4.87-7.52 8.66-16.28 6.04-8.01"/>
  </g>
  <path fill="#fff" d="m299.75 260.41c0.09 2.08 0.56 5.81 0.99 8.01 0.49 2.21 1.59 6.04 2.36 8.26 0.83 2.21 2.52 5.99 3.66 8.16 1.21 2.16 3.62 5.84 5.23 7.95 1.69 2.08 5.01 5.56 7.18 7.48 2.26 1.86 6.57 4.78 9.29 6.27 2.81 1.41 8 3.43 11.18 4.36 3.24 0.84 9.09 1.91 12.6 2.33 3.56 0.36 9.89 0.72 13.64 0.81 3.79 0.05 10.44-0.04 14.32-0.17 3.88-0.17 10.5-0.61 14.23-0.95 3.67-0.38 9.67-1.23 12.92-1.84 3.14-0.67 8.1-2.1 10.71-3.11 2.5-1.08 6.39-3.28 8.39-4.75 1.9-1.55 4.77-4.54 6.19-6.43 1.32-1.95 3.18-5.54 4.02-7.72 0.75-2.23 1.66-6.23 1.98-8.63 0.25-2.43 0.34-6.72 0.21-9.25-0.2-2.54-0.89-6.86-1.49-9.28-0.68-2.37-2.22-6.14-3.32-8.07-1.17-1.82-3.55-4.43-5.11-5.63-1.62-1.08-4.69-2.48-6.61-3.07-1.99-0.53-5.67-1.23-7.96-1.56-2.35-0.3-6.71-0.77-9.4-1.02-2.75-0.23-7.74-0.58-10.75-0.77-3.04-0.18-8.42-0.47-11.59-0.64-3.19-0.18-8.77-0.52-12.04-0.74-3.3-0.23-9.05-0.65-12.41-0.89-3.36-0.25-9.15-0.63-12.45-0.82-3.26-0.16-8.7-0.31-11.69-0.32-2.93 0.02-7.66 0.23-10.21 0.45-2.48 0.26-6.45 0.93-8.56 1.44-2.05 0.57-5.27 1.82-6.93 2.71-1.58 0.97-3.91 2.96-5.02 4.3-1.02 1.41-2.33 4.16-2.84 5.91-0.42 1.81-0.74 5.16-0.72 7.22z" fill-rule="non-zero"/>
  <g fill-opacity=".41" transform="matrix(1.1822 0 0 1.1463 -107.2 -177.31)">
    <path d="m355.72 409.57c1.4 1.74 4.08 4.62 5.77 6.15l-0.04-0.03c1.82 1.54 5.49 4.1 7.69 5.33l-0.04-0.02c3.25 1.66 8.24 3.59 13.35 4.59 10.81 2.13 21.26 1.99 30.71 1.5 4.72-0.24 10.06-0.58 15.73-1.39 2.83-0.4 4.97-0.69 7.47-1.32 2.5-0.64 5.74-1.64 7.44-2.32l-0.05 0.03c1.97-0.88 5.28-2.82 6.82-3.99l-0.05 0.04c1.46-1.23 3.92-3.86 5-5.36l-0.03 0.05c1.02-1.54 2.61-4.72 3.26-6.46l-0.02 0.06c0.58-1.78 1.37-5.33 1.62-7.28l-0.01 0.04c0.4-4-0.12-11.84-1.05-15.7l0.01 0.04c-0.23-0.84-0.62-1.96-1.05-3.07-0.55-1.45-1.19-2.87-1.62-3.67l0.03 0.07c-0.89-1.45-2.94-3.75-3.98-4.59l0.07 0.05c-1.15-0.81-3.74-2.07-5.23-2.56l0.05 0.01c-5.19-1.51-16.3-2.62-23.6-3.11-2.95-0.19-7.25-0.47-10.34-0.68-3.1-0.22-7.13-0.49-12.02-0.84-1.43-0.11-8.68-0.65-16.89-1.14-4.1-0.24-8.43-0.48-13.34-0.35-4.92 0.13-10.69 0.77-13.81 1.49l0.02-0.01c-1.74 0.47-4.49 1.56-5.72 2.2l0.04-0.02c-1.36 0.8-3.37 2.55-4.19 3.47l0.02-0.03c-1.05 1.36-2.2 3.85-2.63 4.88l0.01-0.01c-0.61 1.67-0.99 2.62-1.06 0.68 0-0.01 0.05-0.38 0.14-0.88v-0.01l0.01-0.03c0.25-0.97 1.15-3.55 2.39-5.43l0.01-0.03 0.02-0.01c0.89-1.18 2.79-2.98 4.38-4.03l0.01-0.01 0.03-0.02c1.45-0.85 4.11-1.98 6.01-2.58h0.03l0.01-0.01c4.93-1.37 13.02-2.04 18.59-2.04 5.56 0 9.47 0.18 10.04 0.21 5.08 0.27 19.95 1.4 26.4 1.76 6.38 0.35 12.13 0.6 18.48 1.08 6.36 0.48 12.82 1.16 17.78 2.53l0.03 0.01 0.04 0.01c1.89 0.6 4.39 1.76 6.06 2.92l0.04 0.03 0.06 0.04c1.62 1.29 3.58 3.56 4.71 5.37l0.03 0.04 0.02 0.05c1.06 1.93 2.33 5.2 2.94 7.43l0.01 0.05c1.07 4.54 1.54 12.17 1.06 16.74v0.03 0.03c-0.3 2.23-1.08 5.69-1.78 7.82l-0.02 0.02v0.04c-0.78 2.07-2.34 5.17-3.59 7.05l-0.03 0.04-0.02 0.02c-1.32 1.81-3.73 4.39-5.52 5.88l-0.04 0.03-0.02 0.02c-1.86 1.4-5.11 3.29-7.42 4.31h-0.01l-0.05 0.02c-3.14 1.24-7.84 2.57-12.17 3.27s-8.35 1.18-13.12 1.53c-16.76 1.22-31.96 2.24-47.86-4.34-1.32-0.55-2.77-1.19-3.92-1.79l-0.02-0.02-0.03-0.01c-2.28-1.3-6-3.9-8.07-5.68l-0.03-0.03-0.01-0.01c-2.46-2.26-5.33-5.43-6.99-7.81-6-8.62-7.62-16.71-7.88-20.04-0.27-3.33 0.2-3.56 1.58 0.74 1.12 3.47 2.06 6.19 3.56 9.52 1.49 3.33 3.47 6.78 5.8 9.42"/>
    <path d="m460.33 394.07c0.02-3.89-0.66-7.92-1.31-10.52l0.01 0.06c-0.54-1.88-1.89-5.21-2.71-6.65l0.05 0.08c-0.87-1.36-2.94-3.63-3.97-4.42l0.1 0.07c-1.07-0.71-3.78-1.97-5.15-2.38l0.07 0.02c-2.88-0.74-9.18-1.59-13.58-1.99-4.4-0.41-8.59-0.65-13.56-0.95-2.11-0.13-5.05-0.3-9.86-0.61-4.8-0.31-10.71-0.76-16.09-1.2-5.37-0.44-12.28-0.96-18.74-1.16-3.23-0.1-6.41-0.02-9.37 0.14-2.96 0.15-6.51 0.74-8.5 1.18l0.05-0.01c-1.68 0.44-4.45 1.53-5.61 2.12l0.07-0.03c-1.22 0.71-3.26 2.47-4.03 3.35l0.05-0.07c-0.84 1.09-2.01 3.52-2.43 4.73l0.01-0.05c-0.73 2.49-0.98 6.34-1.14 7-0.15 0.66-0.53 1-0.85-0.97-0.09-0.53-0.13-3.7 0.41-6.38v-0.01l0.01-0.03c0.37-1.42 1.39-3.87 2.42-5.38l0.01-0.03 0.02-0.01c0.94-1.21 2.87-2.97 4.39-3.95h-0.01l0.04-0.02c1.46-0.83 4.13-1.93 6-2.48l0.04-0.01h-0.01c3.09-0.8 7.83-1.43 12.36-1.64 4.54-0.2 8.34-0.07 11.97 0.07 7.26 0.27 12.55 0.78 14.39 0.91 8.78 0.64 17.8 1.16 26.43 1.65 4.31 0.24 8.25 0.47 12.77 0.93 4.52 0.45 9.64 1.13 13.12 2.07v0.01l0.04 0.01c1.78 0.56 4.32 1.73 5.88 2.8l0.05 0.02 0.01 0.03c1.51 1.18 3.49 3.44 4.58 5.17l0.01 0.01 0.02 0.04c1.02 1.84 2.31 5.1 2.92 7.27v0.02l0.01 0.02c1.07 4.4 1.58 12.04 1.15 16.54v0.01 0.03c-0.24 1.89-0.84 4.71-1.42 6.77-0.1 0.34-0.19 0.67-0.29 0.97l-0.01 0.01-0.01 0.03c-0.69 1.89-2.21 5.02-3.5 6.99l-0.03 0.04c-1.22 1.7-3.6 4.3-5.43 5.84l-0.02 0.03h-0.02c-1.76 1.35-5 3.27-7.33 4.3l-0.04 0.02h-0.01c-4.36 1.75-12.03 3.4-18.51 4.2-6.48 0.81-12.42 1.08-19.79 1.18-7.37 0.09-13.37 0.04-19.93-1-6.57-1.03-14.14-3.41-18.55-5.71h-0.01l-0.03-0.02c-2.5-1.42-6.12-3.98-8.03-5.62l-0.02-0.01-0.01-0.02c-6.13-5.62-11.41-14.8-13.47-20.17-2.05-5.38-2.5-9.48-2.56-10.23-0.66-9.35 0.09-4.03 2.12 2.77 2.02 6.79 6.99 15.77 8.24 17.61 2.23 3.3 5.08 6.23 7.31 8.22l-0.03-0.03c1.81 1.52 5.5 4.08 7.69 5.29l-0.05-0.02c4.27 2.17 12.06 4.49 18.17 5.39s11.82 0.93 18.87 0.82c7.04-0.11 13.03-0.4 19.04-1.12 6-0.73 14.4-2.48 18.52-4.13l-0.06 0.02c1.94-0.86 5.27-2.82 6.77-3.97l-0.06 0.05c1.44-1.21 3.9-3.85 4.97-5.33l-0.04 0.06c1-1.52 2.59-4.69 3.23-6.41l-0.02 0.06c0.57-1.75 1.36-5.3 1.61-7.24l-0.01 0.05c0.12-1.2 0.2-3.12 0.22-4.89"/>
    <path d="m348 394.78c1.11 3.51 2.63 6.87 5.16 10.85 2.52 3.98 5.81 7.63 8.42 9.99l-0.04-0.03c1.83 1.53 5.53 4.1 7.67 5.31l-0.05-0.03c1.42 0.73 3.67 1.7 5.72 2.49 12.35 4.77 23.06 4.14 34.79 3.89 5.86-0.13 10.93-0.39 16.92-1.14 5.98-0.75 13.22-2.3 17.28-3.87l-0.04 0.02c1.59-0.69 4.03-2.05 5.78-3.19 0.42-0.28 0.8-0.54 1.11-0.77l-0.04 0.03c1.44-1.18 3.93-3.8 5.08-5.38l-0.02 0.04c1.01-1.52 2.63-4.69 3.31-6.5l-0.01 0.04c0.58-1.79 1.38-5.32 1.64-7.33v0.03c0.4-4.04-0.12-11.87-1.09-15.82l0.01 0.04c-0.57-1.99-1.9-5.29-2.74-6.79l0.03 0.06c-0.94-1.47-2.99-3.74-4.1-4.59l0.06 0.04c-1.21-0.81-3.83-2.02-5.31-2.47l0.05 0.02c-1.01-0.26-2.62-0.59-4.07-0.85-9.37-1.64-15.98-1.62-25.12-2.14-9.15-0.51-16.99-1.12-26.48-1.82-3.37-0.25-8.7-0.64-15.24-0.79-3.26-0.07-6.17-0.02-9.57 0.18-3.4 0.19-7.2 0.82-9.42 1.35l0.05-0.01c-1.62 0.45-4.41 1.57-5.59 2.2l0.07-0.04c-1.19 0.72-3.22 2.5-3.98 3.4l0.05-0.07c-0.8 1.07-1.95 3.5-2.36 4.74l0.02-0.06c-0.65 2.36-0.88 6.71-0.97 7.24-0.1 0.54-0.41 0.01-0.62 0.33-0.21 0.33-1.15-3.89-0.39-8.02l-0.01 0.02 0.02-0.07c0.37-1.52 1.37-3.96 2.4-5.51l0.04-0.05v-0.01c0.99-1.28 2.9-3.04 4.46-4.06l0.03-0.02 0.03-0.01c1.51-0.87 4.16-1.97 6.08-2.53l0.04-0.01c3.9-1.02 10.86-1.67 15.75-1.75 4.9-0.07 10.08 0.25 15.51 0.63 10.85 0.76 18.42 1.41 23.27 1.69 6.17 0.36 11.39 0.57 18.06 1.05 3.34 0.25 6.13 0.5 9.37 0.87 3.24 0.38 6.77 0.99 9.24 1.66l0.02 0.01h0.03c1.74 0.55 4.38 1.76 5.96 2.84l0.03 0.01 0.05 0.04c1.51 1.19 3.51 3.45 4.63 5.24l0.03 0.04 0.01 0.03c1.05 1.89 2.32 5.1 2.94 7.32v0.02l0.01 0.03c1.1 4.49 1.59 12.08 1.15 16.63v0.01l-0.01 0.03c-0.29 2.23-1.04 5.67-1.73 7.78l-0.01 0.02-0.01 0.03c-0.77 2.08-2.31 5.16-3.54 7.02l-0.01 0.02-0.03 0.04c-1.32 1.81-3.71 4.38-5.48 5.85v0.01l-0.05 0.03c-1.86 1.41-5.13 3.31-7.38 4.3l-0.01 0.01-0.04 0.01c-2.17 0.86-5.9 1.96-8.61 2.59-6.62 1.54-20.22 2.56-33.41 2.41-13.2-0.15-25.91-3.08-32.37-6.05-0.78-0.36-1.51-0.71-2.13-1.04l-0.02-0.01c-2.22-1.28-5.9-3.85-7.91-5.57l-0.01-0.01c-4.33-3.97-9.12-10.31-11.56-15.92-2.45-5.61-3.2-9.75-3.13-11 0.11-1.98 1.01 1.53 3.15 6.87"/>
    <path d="m348.73 396.09c1.18 2.35 7.41 13.57 10.79 17.07 0.83 0.86 1.64 1.65 2.27 2.23l-0.04-0.04c1.81 1.52 5.51 4.09 7.61 5.27l-0.06-0.03c4.43 2.28 12.68 4.67 18.51 5.54 5.83 0.86 11.72 0.94 18.6 0.88s12.79-0.3 18.64-0.96 14.38-2.35 18.72-4.06l-0.05 0.02c1.95-0.86 5.26-2.79 6.81-3.97l-0.06 0.04c1.32-1.1 3.51-3.41 4.71-4.96 0.1-0.14 0.2-0.27 0.28-0.38l-0.04 0.05c1.09-1.65 2.65-4.84 3.24-6.45l-0.02 0.06c0.62-1.92 1.37-5.47 1.59-7.27l-0.01 0.05c0.45-4.94-0.38-12.45-1.21-15.63l0.02 0.06c-0.6-2.02-1.98-5.29-2.77-6.62l0.06 0.08c-0.85-1.28-2.92-3.57-3.98-4.37l0.1 0.08c-0.99-0.65-3.66-1.92-5.12-2.36l0.07 0.02c-3.76-0.95-14.46-2.19-24.01-2.74-5.92-0.34-14.07-0.87-21.25-1.5-7.19-0.63-14.32-1.41-21.57-1.71-3.06-0.13-6.42-0.23-10.84-0.01-4.43 0.23-9.26 0.95-11.91 1.64l0.06-0.02c-1.66 0.49-4.43 1.66-5.45 2.22l0.09-0.06c-0.92 0.57-2.37 1.79-3.2 2.58-0.27 0.25-0.5 0.5-0.67 0.68l0.07-0.1c-0.73 0.93-1.97 3.35-2.44 4.54l0.02-0.08c-0.95 2.81-1.31 6.98-1.81 6.67-0.54-0.34-1-3.9-0.53-7.19l0.01-0.02 0.01-0.03c0.31-1.51 1.26-3.97 2.3-5.58l0.03-0.06 0.02-0.01c0.97-1.32 2.86-3.09 4.46-4.14l0.02-0.02 0.04-0.02c1.54-0.91 4.18-2.01 6.12-2.59h0.01l0.03-0.01c4.32-1.15 12.12-1.81 16.72-1.78 4.61 0.03 10.27 0.3 14.78 0.58 10.17 0.63 18.27 1.28 29.04 1.88 5.39 0.3 11.23 0.67 15.48 1.03s11.08 1.16 15.34 2.34l0.06 0.01c1.87 0.6 4.38 1.76 6.03 2.9l0.03 0.02 0.07 0.05c1.6 1.27 3.57 3.54 4.69 5.33l0.02 0.04 0.02 0.04c1.07 1.93 2.34 5.2 2.95 7.4v0.03l0.01 0.03c0.67 2.78 1.32 6.66 1.36 10.03 0.03 2.2-0.05 4.9-0.23 6.68v0.03l-0.01 0.02c-0.29 2.25-1.04 5.69-1.74 7.83l-0.03 0.05v0.01c-0.78 2.11-2.32 5.17-3.57 7.07l-0.04 0.03v0.03c-1.34 1.84-3.73 4.4-5.53 5.89l-0.04 0.03-0.02 0.02c-1.88 1.42-5.13 3.31-7.43 4.32l-0.02 0.02h-0.03c-4.68 1.84-12.26 3.38-18.49 4.13s-11.65 0.98-18.28 1.05c-13.27 0.15-24.75-0.16-36.91-5.5-1.18-0.52-2.29-1.04-3.17-1.52l-0.03-0.02c-2.36-1.39-5.97-4-7.9-5.73l-0.02-0.02c-2.99-2.88-6.45-7.17-8.9-11.38-4.57-7.83-5.9-16.99-2.43-9.59"/>
  </g>
  <path fill="#fff" d="m184.15 116.94c0.91-1.43 1.84-2.12 2.79-2.78 1.46-0.97 6.83-3.5 13.07-5.51 7.67-2.08 21.98-4.91 26.35-5.59 2.81-0.37 7.57-0.07 14.45 0.78 9.49 1.27 29.29 4.31 35.04 5.4 3.35 0.72 9.4 1.21 18.86 1.39 12.83 0.14 38.49 0.05 46.14 0 4.77 0.05 11.99 0.8 20.6 1.86 10.6 1.41 28.9 4.36 30.75 4.74 4.73 1.07 5.35 1.59 6.59 2.03 0.85 0.38 2.14 1.18 3.26 2.19 0.82 0.73 1.62 1.59 2.28 2.47 4.01 5.38 4.76 10.66 5.61 16.04 4.8 30.69 6.68 40.39 7.1 53.35 0.46 14.57-14.92 17.19-26.26 17.45-38.61 2.19-60.85 6.3-78.99 7.53-13.73 0.93-37.88 3.68-46.82 1.84-9.66-2.61-49.01-2.75-68.96-6.3l-41.88-11.59c1.05-6.89 2.62-14.49 5.05-21.82 4.18-10.11 12.72-27.58 15.76-36.86 1.75-8.4 4.75-21.18 8.87-26.34 5.53-3.44 12-3.99 21.82-4.48 12.41-0.39 19.31 0.35 29.32 2.7 13.81 2.29 23.34 2.78 38.52 3.13 18.75-0.61 28.89-2.72 46.28-3.28 20.67-0.23 30.76 1.07 44.75 1.96 17.61 0.43 27.04-0.92 34.54 2.06 8.36 5.24 10.1 12.66 11.54 26.89 1.4 17.02 4.66 25.81 5.53 34.94 0.8 8.26 0.43 8.4 0.72 14.42" fill-rule="non-zero"/>
  <g fill-opacity=".41" transform="matrix(1.1822 0 0 1.1463 -107.2 -177.31)">
    <path d="m324.97 248.3c3.88 0.75 13.69 1.07 21.34 1.1 7.66 0.03 17.37 0 24.55-0.03 7.18-0.04 10.49-0.16 18.43 0.68 7.94 0.85 17.97 2.4 25.86 3.69 6.09 0.99 9.39 1.61 13.55 3.15l0.02-0.01 0.1 0.06c3.65 1.64 7.2 6.64 8.66 10.76 1.47 4.12 1.76 7.74 2.74 14.11 1.96 12.73 3.28 20.88 4.11 27.51 0.42 3.31 0.72 6.24 0.91 9.17 0.1 1.46 0.18 2.92 0.23 4.43 0.05 1.5-0.27 5.16-1.24 7.33-3.85 8.7-14.91 10.15-22.94 10.35h0.07c-26.74 1.57-43.06 4.1-56.81 5.64-6.88 0.77-13.34 1.21-23.49 2.06-10.15 0.84-22.47 1.34-26.68 0.45l-0.07-0.02-0.05-0.01c-6.81-1.9-41.37-2.37-58.15-5.46l-0.05 0.01-0.15-0.05c-6.19-1.77-12.37-3.54-18.53-5.29-5.89-1.68-11.42-3.27-16.89-4.85l-1.73-0.39 0.27-1.89c0.95-6.3 2.36-13.04 4.42-19.33l0.02-0.09 0.03-0.04c3.69-9.03 10.78-23.69 13.49-31.96l-0.05 0.19c1.48-7.06 3.65-18.14 7.94-23.63l0.24-0.25 0.17-0.12c3.52-2.24 7.02-3.07 11.71-3.58 5.91-0.64 12.95-0.73 17.97-0.42 5.02 0.32 9.35 1.08 14.79 2.43l-0.1-0.02c8.83 1.55 15.68 2.28 27.47 2.64 0.87 0.03 2.48 0.07 4.91 0.12h-0.08c7.34-0.26 17.01-1.45 30.36-2.47 6.68-0.5 17.12-0.6 24.96-0.27 7.85 0.34 14.18 0.99 21.83 1.51l-0.06-0.01c15.02 0.4 23.2-0.71 29.69 2.01l0.14 0.05 0.08 0.07c8.13 5.32 9.33 13.47 10.17 24.95 0.83 11.47 2.25 17.5 2.95 22.05 0.7 4.54 0.75 6.8 0.7 9.28s-0.52 0.2-1.17-2.27c-0.03-0.1-0.87-4.14-2.88-14.61-1.01-5.23-1.77-14.5-3-21.81-1.22-7.3-3.01-11.69-8.41-15.07l0.28 0.14c-5.99-2.32-14.33-1.07-28.64-1.32l-0.02 0.01-0.06-0.01c-9.91-0.53-17.34-1.13-24.87-1.28s-14.13 0.07-15.15 0.12c-7.64 0.39-18.57 2.23-36.77 2.85h-0.03-0.11c-14.48-0.32-23.91-1.23-31.98-2.55-0.33-0.05-0.65-0.1-0.98-0.16l-0.18-0.03v-0.01c-7.7-1.84-12.59-2.42-20.85-2.3-8.27 0.12-16.46 1.1-20.34 3.6l0.68-0.63c-2.57 3.34-5.44 14.2-6.98 21.87l-0.02 0.17-0.06 0.12c-2.75 8.64-10 23.87-13.41 32.34l0.06-0.18c-2.01 6.22-3.3 12.61-4.19 18.6l-1.91-2.96c11.86 3.41 24.05 6.91 35.41 10.18l-0.25-0.05c16.26 3.03 48.67 2.89 58.52 5.68l-0.15-0.04c5.94 1.28 14.78 0.38 24.74-0.42 4.98-0.4 9.84-0.84 13.81-1.12s6.18-0.5 9.55-0.86c13.45-1.46 30.6-4.09 57.68-5.67l0.09-0.01h-0.01c5.42-0.13 11.44-0.98 15.35-3.53 4.42-2.89 4.67-9.39 4.36-14s-0.88-9.31-1.84-15.85c-0.47-3.27-1.04-7-1.72-11.41-0.34-2.2-0.71-4.58-1.1-7.15-0.4-2.57-0.95-6.19-1.19-7.8-0.98-6.42-2.29-13.08-7.99-15.65l0.15 0.06c-1.28-0.47-1.38-0.74-4.68-1.54-1.65-0.4-0.87-0.19-1.28-0.27-0.42-0.07-0.97-0.17-1.63-0.29-2.65-0.45-7.06-1.18-11.66-1.91-9.21-1.46-18.32-2.69-24.71-3.17-3.87-0.29-6.05-0.2-11.21-0.2s-12.34 0-19.11-0.02c-6.76-0.03-12.55 0.01-19.19-0.32s-9.03-0.89-12.24-1.46c-6.71-1.18-19.38-3.22-25.85-4.27-3.24-0.52-8.17-1.11-10.67-1.23s-3.44 0.06-5.67 0.38c-4.46 0.64-9.98 1.58-13.42 2.12s-5.26 0.76-6.03 0.71l0.03 0.01-0.03-0.01c-0.82 0.08-0.89-0.09-0.16-0.5v-0.01h0.02c0.82-0.54 3.56-1.55 9.16-2.97 5.36-1.35 10.44-2.44 12.81-2.88 1.19-0.22 3.17-0.27 5.42-0.15 2.26 0.12 6.08 0.54 7.98 0.8 7.58 1.06 23.44 3.57 29.89 4.55"/>
    <path d="m276.42 345.89c-7.5-0.55-14.91-1.27-20.38-2.25l-0.1-0.03-0.13-0.03c-11.79-3.33-23.44-6.59-35.47-9.95l-2.22-0.57 0.34-2.34c0.87-6.11 2.2-12.95 4.26-19.48l0.03-0.12 0.03-0.07c3.55-9.04 10.54-23.85 13.09-32.03l-0.08 0.32c1.46-7.43 3.95-19 8-24.24l0.33-0.38 0.43-0.31c6.48-4.17 15.67-4.43 24.28-4.46 5.11-0.01 11.42 0.16 21.28 2.57l-0.19-0.04c10.04 1.73 17.65 2.38 32.15 2.75l-0.17 0.01c14.08-0.44 22.75-2.1 37.1-2.66 7.18-0.28 16.21 0.05 22.46 0.45 6.24 0.4 11.6 0.95 17.72 1.4l-0.11-0.01c15.11 0.45 23.33-0.64 30.03 2.2l0.15 0.04 0.24 0.16c5.62 3.71 8.04 8.84 9.26 15.3 1.23 6.46 1.6 15.26 2.41 21 0.82 5.74 1.68 9.87 2.24 13.47 0.55 3.61 0.9 8.31 0.93 11.43 0.03 3.13-0.16 4.58-0.17 7.34 0 2.76 0.13 6.3 0.14 8.34 0.03 4.07-0.95-2.42-1.62-8.56-0.27-2.46-0.16-10.35-2.37-21.01-1.11-5.33-2.49-13.67-3.65-24-1.17-10.32-2.54-16.14-9.1-20.35l0.2 0.11c-5.97-2.41-13.97-1.27-28.78-1.62h-0.04-0.02c-7.41-0.47-13.4-1.05-20.38-1.37-6.98-0.33-16.33-0.39-22.42-0.03-12.17 0.72-19.43 1.75-22.94 2.03-3.38 0.28-7.01 0.51-11.13 0.65h-0.05-0.03c-12.92-0.29-21.22-0.75-32.79-2.71l0.01 0.02-0.11-0.04c-7.4-1.78-12.62-2.46-20.9-2.36-8.29 0.09-16.61 0.83-21.19 3.77l0.39-0.36c-2.95 3.83-5.67 14.79-7.18 22.36l-0.03 0.08-0.01 0.08c-2.65 8.36-9.88 23.62-13.33 32.29l0.03-0.11c-2.01 6.28-3.3 12.77-4.18 18.78l-1.17-1.82c11.81 3.36 23.89 6.79 35.44 10.07l-0.16-0.04c14.11 2.57 40.54 3.04 53.25 4.55 2.06 0.24 3.84 0.52 5.24 0.9l-0.1-0.02c4.61 0.96 11.9 0.51 21.21-0.21 9.32-0.72 17.61-1.36 24.22-2.04 13.21-1.36 30.65-4.29 60.52-6.04h-0.01l0.07-0.01c7.59-0.18 16.41-1.73 19.33-7.69 1.46-2.99 1.05-7.09 0.87-9.94-0.18-2.84-0.46-5.69-0.86-8.95-0.8-6.51-2.1-14.65-4.06-27.46-0.98-6.41-1.32-10.09-2.56-13.63s-3.43-7.18-6.65-8.63l0.11 0.04c-3.35-1.25-6.16-1.88-11.25-2.73-5.1-0.85-12.32-2.01-17.84-2.8-5.51-0.8-11.47-1.46-15.61-1.76-4.15-0.29-6.22-0.15-10.63-0.14-8.84 0.02-21.6 0.03-29.68-0.05-4.04-0.04-10.5-0.26-14.15-0.63s-5.04-0.8-8.29-1.37c-6.5-1.13-16.63-2.73-22.86-3.65-3.11-0.47-7.11-0.97-9.95-1.16-2.84-0.18-4.07-0.11-5.7 0.16-3.25 0.56-8.85 1.7-12.89 2.58-4.03 0.88-6.78 1.56-8.27 1.95l0.06-0.02c-1.37 0.44-2.27 0.77-2.74 0.92-6.18 2.09-7.25 2.57-8.67 3.38-1.41 0.81-1.87 1.28-1.62 0.71 0.51-1.14 2.26-3.46 12.34-7.09l0.04-0.01c4.17-1.33 11.91-3.2 17.57-4.45 5.65-1.24 8.31-1.53 16.16-0.66 3.92 0.43 5.53 0.68 8.39 1.08 2.85 0.4 5.72 0.81 8.22 1.18 4.98 0.75 8.28 1.27 9.71 1.51 4.22 0.7 5.63 1.14 9.96 1.49 4.32 0.35 10.57 0.45 15.32 0.46 9.5 0.02 22.72-0.05 30.16-0.11 3.73-0.03 6.23-0.05 10.85 0.36 4.63 0.42 10.14 1.08 15.75 1.9 5.61 0.83 12.06 1.86 16.36 2.57 2.14 0.35 3.73 0.62 4.48 0.76 0.38 0.07 2.8 0.66 3.98 1.05 1.19 0.39 1.75 0.69 2.19 0.85l0.05 0.01 0.08 0.05c0.96 0.42 4.08 2.74 5.49 4.65 1.41 1.92 2.59 4.23 3.33 6.32 1.47 4.18 1.78 7.95 2.76 14.31 1.97 12.72 3.28 20.81 4.11 27.41 0.42 3.3 0.71 6.22 0.91 9.14 0.1 1.46 0.18 2.92 0.23 4.43 0.05 1.5-0.33 5.29-1.33 7.48-4 8.74-15.37 10.16-23.1 10.36h0.08c-25.87 1.53-42.98 4.11-56.74 5.67-6.88 0.77-13.3 1.22-23.46 2.07s-22.76 1.33-26.85 0.46l-0.13-0.02-0.02-0.01c-4.37-1.22-21.54-1.99-37.1-3.12"/>
    <path d="m280.18 242.98c6.13-1.12 15.67 0.48 26.44 2.13 5.38 0.83 11.04 1.74 14.82 2.38 3.78 0.65 5.42 1.08 10.54 1.38 10.26 0.62 21.69 0.34 32.38 0.31s14.97-0.38 24.56 0.66c7.18 0.78 15.75 2.09 23.45 3.34 7.69 1.25 11.6 1.88 16.35 3.65l0.09 0.05h0.03c3.8 1.72 7.35 6.91 8.77 11.11 1.43 4.19 1.76 8.17 2.72 14.49 1.94 12.66 3.2 20.64 4 27.17 0.4 3.26 0.68 6.15 0.87 9.05 0.09 1.45 0.16 2.9 0.2 4.39 0.05 1.49-0.34 5.19-1.32 7.31-3.92 8.46-14.79 9.89-22.79 10.07l0.06-0.01c-16.4 0.94-28.69 2.23-39.48 3.47-5.39 0.63-10.29 1.23-14.86 1.74-4.56 0.51-7.73 0.84-12.95 1.19-5.37 0.36-12.93 1.09-20.42 1.58-7.48 0.49-15.73 0.58-19.16-0.16l-0.04-0.01-0.05-0.01c-6.87-1.95-41.21-2.38-58.2-5.47v-0.01l-0.15-0.03c-12.07-3.42-23.89-6.76-35.45-10.01l-1.41-0.49 0.2-1.39c0.9-6.25 2.26-13.05 4.25-19.33l0.03-0.03 0.01-0.09c2.05-5.22 5.16-12.22 7.78-18.44 2.24-5.31 4.17-10.1 5.28-13.67l-0.06 0.21c1.47-7.5 3.97-18.89 7.8-23.88l0.15-0.29 0.39-0.2c6.01-3.87 14.47-4.26 22.97-4.36 8.51-0.11 14.23 0.62 21.95 2.5l-0.14-0.03c11.46 1.96 18.94 2.4 32.26 2.73h-0.12c8.28-0.26 14.64-0.9 21.27-1.55 5.54-0.53 14-1.42 25.5-1.31 11.5 0.12 19.81 0.99 30.45 1.69h-0.09c14.48 0.36 23.03-0.89 29.97 1.98l0.22 0.09 0.13 0.09c4.93 3.21 7.51 7.6 8.88 13.19s1.75 13.71 2.52 19.73c1.52 12.03 3.18 16.3 3.71 25.76 0.26 4.73-0.01 5.69 0.01 8.92 0.02 3.22 0.29 8.47 0.63 13.94s0.7 10.74 0.7 12.62c0.01 1.87-0.38 0.06-1.05-4.59-0.8-5.6-2.02-16.53-2.43-21.8-0.21-2.64-0.24-3.99-0.44-6.57s-0.64-6.68-1.14-9.38c-1.02-5.38-3.01-11.87-4.24-24.04-1.24-12.17-2-19.76-9.31-24.44l0.3 0.16c-5.69-2.29-13.32-1.22-28.56-1.59h-0.08c-6.5-0.43-11.96-0.95-18.33-1.31s-15.51-0.62-22.42-0.29c-13.82 0.65-22.88 2.25-36.06 2.67h-0.01-0.1c-15.04-0.37-23.07-1.22-30.49-2.39-0.77-0.12-1.55-0.25-2.35-0.39v0.02l-0.12-0.04c-7.39-1.78-12.39-2.44-20.6-2.35s-16.3 0.57-21.22 3.73l0.48-0.44c-3.08 4.02-5.63 14.88-7.1 22.21v0.08l-0.05 0.12c-2.52 7.99-9.83 23.56-13.33 32.32l0.05-0.13c-2.01 6.28-3.29 12.76-4.16 18.71l-1.45-2.24c11.61 3.29 23.58 6.69 35.43 10.06l-0.19-0.04c8.43 1.54 20.73 2.31 32.19 3 11.45 0.7 22.88 1.55 26.32 2.51l-0.12-0.04c3.24 0.69 10.45 0.56 18 0.05 7.56-0.5 16.8-1.37 21.32-1.69 9.04-0.64 19.42-2.15 33.05-3.63 7.32-0.8 17.86-1.88 33.51-2.73l0.06-0.01c6.71-0.11 15.25-1.22 18.83-6.55 1.79-2.67 1.76-7.11 1.63-10-0.14-2.9-0.36-5.79-0.72-9.08-0.72-6.58-1.97-14.85-3.91-27.97-0.97-6.56-1.31-10.51-2.57-14.21-1.26-3.69-3.98-7.69-6.92-9.05l0.08 0.03c-1.51-0.58-4.95-1.68-5.75-1.85s-2.56-0.49-4.78-0.88c-4.42-0.78-10.54-1.8-15.55-2.58-10.03-1.57-17.81-2.37-21.9-2.52-3.77-0.13-7.71-0.03-14.16-0.04-6.45 0-14.09-0.01-20.29-0.05-6.19-0.04-14.61-0.28-18.98-0.9-4.38-0.61-8.07-1.46-14.41-2.5s-12.94-2.07-17-2.69c-2.04-0.31-5.96-0.75-8.1-0.9-2.14-0.14-3.66-0.13-4.68 0-4.09 0.52-12.68 2.14-15.16 2.34-3.02 0.24-1.88-0.43 2.36-1.65 2.12-0.61 5.11-1.35 7.99-2 2.89-0.64 4.52-1.2 8.11-1.13"/>
    <path d="m283.37 242.17c3.19-0.33 15.33 1.08 28.32 3.15 6.49 1.04 11.01 1.92 14.09 2.44 3.08 0.51 8.33 0.79 12.61 0.9 5.61 0.13 7.98 0.07 12.45 0.07 4.46 0 9.21-0.01 13.57-0.02 8.7-0.03 12.7-0.37 19.7 0.19 6.99 0.55 16.39 1.87 25.44 3.31s13.63 2.01 19.34 4.15l0.05 0.02 0.11 0.05c4.05 1.83 7.56 7.09 9.01 11.35 1.46 4.26 1.76 8.18 2.73 14.52 1.92 12.66 3.17 20.67 3.96 27.22 0.4 3.28 0.68 6.19 0.86 9.1 0.09 1.45 0.15 2.91 0.2 4.41 0.04 1.49-0.34 5.28-1.35 7.47-4.01 8.76-15.1 10.16-23.16 10.33h0.08c-21.82 1.24-36.59 3.13-49.34 4.66-6.37 0.77-12.05 1.43-17.44 1.8-5.38 0.38-16.71 1.52-25.54 1.96-6.27 0.32-12.32 0.12-14.7-0.37l-0.05-0.01-0.08-0.03c-4.37-1.19-18.64-1.87-30.11-2.57-11.47-0.69-21.6-1.53-28.08-2.67l-0.1-0.01-0.12-0.04c-13.46-3.74-24.25-6.7-35.51-9.8l-2.33-0.56 0.36-2.49c0.79-5.73 1.99-12.42 4.21-19.51l0.04-0.13 0.03-0.07c3.04-7.78 10.26-23 13.08-32.02l-0.08 0.33c1.21-6.17 3.51-18.43 8.03-24.3l0.35-0.47 0.46-0.27c3.92-2.52 8.45-3.55 14.25-4.05 5.51-0.48 11.98-0.59 16.9-0.26 4.92 0.34 9.48 1.16 14.54 2.42l-0.2-0.04c11.36 2.01 19.36 2.55 32.12 2.94h-0.16c10.39-0.27 17.62-1.11 25.59-1.78 7.97-0.66 19.34-0.92 27.96-0.59 7.44 0.28 14.65 0.93 23.72 1.46h-0.11c14.29 0.29 23.14-1.04 30.21 1.8l0.28 0.12 0.19 0.13c6.04 3.86 8.6 9.54 9.84 16.16 1.25 6.62 1.66 14.83 2.32 19.66 0.74 5.42 1.58 9.75 2.14 13.58 0.55 3.83 0.89 8.83 0.83 12.19-0.06 3.37-0.36 5-0.49 7.44s-0.24 4.44-0.57 3.5c-1.1-3.14-1.3-12.39-3.72-22.98-1.21-5.29-2.89-12.93-4.14-24.16-1.25-11.24-2.37-16.99-8.94-21.18l0.37 0.19c-5.7-2.28-13.53-1.18-28.44-1.54l-0.01 0.01-0.08-0.01c-8.22-0.53-14.7-1.19-22.69-1.5-8-0.31-17.98-0.13-24.16 0.36-9.38 0.76-17.32 1.99-29.92 2.43l-0.03 0.01h-0.11c-12.75-0.28-20.96-0.68-32.94-2.72l-0.07-0.01-0.1-0.02c-7.46-1.8-12.33-2.44-20.52-2.36-8.2 0.08-16.1 0.59-20.8 3.6l0.64-0.59c-3 3.88-5.48 14.23-7.03 21.94l-0.05 0.21-0.02 0.06c-2.73 8.54-9.99 23.81-13.41 32.33l0.06-0.17c-2.01 6.24-3.3 12.66-4.19 18.63l-1.78-2.76c11.99 3.43 23.83 6.82 35.42 10.13l-0.23-0.06c4.6 0.85 10.16 1.43 16.18 1.93 16.51 1.35 35.21 1.62 42.36 3.62l-0.15-0.04c3.07 0.66 6.06 0.58 10.63 0.43s9.82-0.53 14.88-0.95c10.11-0.83 16.51-1.26 23.32-2.01 13.62-1.5 30.95-4.04 56.95-5.51h0.02 0.06c7.79-0.17 16.41-1.78 19.12-7.64 1.35-2.93 0.93-6.91 0.76-9.73-0.17-2.83-0.44-5.66-0.82-8.9-0.78-6.48-2.03-14.58-3.94-27.32-0.96-6.37-1.28-10.04-2.49-13.57-1.21-3.52-3.31-7.15-6.57-8.65l0.11 0.05c-1.25-0.48-1.41-0.79-5.02-1.66-1.81-0.44-0.67-0.16-1.12-0.24-0.46-0.09-1.05-0.2-1.76-0.33-2.85-0.51-7.54-1.31-12.35-2.09-9.62-1.56-19.08-2.86-25.36-3.28-4.88-0.33-8.2-0.17-14.87-0.22s-14.63-0.12-21.06-0.23-14.85-0.41-19.41-1.1c-4.57-0.7-8.14-1.62-14.71-2.76-12.75-2.19-26.19-4.61-30.73-4.4-4.53 0.2-7.08-1.33 2.86-2"/>
  </g>
  <path fill="#fff" d="m488.12 208.64l-10.89-2.87c-3.78-0.39-7.42-1.94-16.87-3.06-28.25-4.02-12.04-2.6-35.11-4.4-12.17-0.95-14.93-2.33-33.2 0.89-27.63 5.88-12.44 4.88-37.59 6.92-39.25 3.17-23.44 1.87-50.02 2.83-38.09 1.38-24.16 1.5-23.35 1.14-11.97 0.59 8.09 0.38-20.28 0.35-30.76-3.46-17.1-0.41-37.94-4.01-27.11-3.99-16.53-1.13-32.55-4.71-22.05-2.49-10.72-2.24-26.66-2.72-22.53-0.35-7.27 0.52-28.72-0.34-27.91-1.12-11.88-0.17-34.42 0.18-26.7 0.67-20.07 2.88-32.06 4.41l-8.14 1.1c13.04-1.79 28.51-1.87 44.55 0.95 10.12 3.4 57.82 18.5 82.96 27.72 19.92 11.4 55.05 24.78 93.41 25.74 36.09-9.82 104.4-18.94 133.49-36.63 12.27-7.45 73.99-14.38 89.08-12.48 3.12 0.39 10.62 2.25 15.66 3.15" fill-rule="non-zero"/>
  <g fill-opacity=".41" transform="matrix(1.1822 0 0 1.1463 -107.2 -177.31)">
    <path d="m429.7 329.13c-2 0.26-4.31 0.63-7.06 1.13l0.06-0.01c-13.59 2.98-14.7 3.91-18 4.6-1.65 0.35-3.7 0.59-8.01 0.98-4.32 0.39-12.6 1.07-17.55 1.48-9.91 0.82-12.58 1.01-15.8 1.11-3.22 0.11-3.72-0.02-22.65 0.77-11.26 0.46-14.57 0.82-14.28 0.73 0.02 0 1.08-2.81 1.08-2.81 0-0.01-1.31-0.94-1.33-0.95-0.04 0-0.12-0.01-0.05-0.01 0.14 0 0.43 0 0.73-0.01 0.61-0.02 0.97-0.05 0.82 0.02l-9.54 4.29 10.44-0.53c0.61-0.03-1.15 0.07-1.58 0.09-0.43 0.03-0.77 0.05-1.03 0.08-0.51 0.04-0.68 0.07-0.57 0.05 0.02-0.01 0.56-0.26 0.57-0.27 0.01 0 0.31-2.97 0.3-2.98s-0.96-0.54-1-0.55c-0.03-0.01-0.02-0.01 0.01 0 0.02 0 0.07 0 0.1 0.01 0.03 0 0.96 3.51 0.96 3.51-0.01 0-1.16 0.44-1.21 0.44h-0.14-0.38c-0.36 0-0.95-0.01-1.92-0.01-1.93-0.01-5.37-0.03-11.38-0.03l-0.17-0.01-0.05-0.01c-24.09-2.78-15.93-0.68-28.87-2.89-3.23-0.55-9.71-1.53-13.16-1.97s-5.3-0.6-6.68-0.72c-2.77-0.23-3.78-0.31-11.15-2l0.23 0.04c-11.39-1.33-12.48-1.79-14.26-1.99-0.89-0.11-2.12-0.17-5.11-0.27-3-0.1-8.71-0.18-11.15-0.17-4.87 0.02-3.65 0.2-7.88 0.09-2.11-0.06-6.73-0.25-11.5-0.44-4.78-0.19-7.65-0.28-9.53-0.31-3.75-0.06-3.54 0.13-7.16 0.33-1.81 0.1-4.51 0.21-9.03 0.28-4.52 0.08-9.49 0.37-12.23 0.65-5.49 0.55-6.37 1.22-9.08 2.04-2.71 0.81-7.97 1.47-12.52 2.1l-0.58-4.12c11.07-1.56 25-1.57 38.35 0.85l0.15 0.03 0.16 0.05c3.95 1.37 14.89 4.98 27.47 9.22 15.95 5.38 32.06 10.99 42.71 15.11l0.16 0.04 0.14 0.1c12.31 7.4 29.56 15.73 55.88 20.32 7.55 1.32 14.73 2.08 22.18 2.31l-0.44 0.06c8.3-2.26 19.04-4.58 34.95-8.02 3.25-0.7 17.87-3.63 36.31-8.43 9.22-2.41 19.17-5.32 27.82-8.74 8.65-3.43 13.14-7.41 22.25-9.89 9.12-2.49 22.27-4.51 33.53-5.75s20.44-1.68 26-1.61c11.12 0.16 11.87 1.73 7.81 1.98-0.08 0-3.06-0.53-14.24 0.26-11.19 0.78-31.65 3.23-46.32 6.67-3.67 0.86-6.9 1.76-9.39 2.66s-3.47 1.51-5.79 2.91c-4.62 2.82-9.94 5.21-14.97 7.17-10.06 3.93-18.65 6.23-19.93 6.59-12.85 3.62-53.76 12.3-67.86 15.78-3.25 0.8-6.28 1.6-9.06 2.39l-0.34 0.1-0.43-0.01c-33.1-0.77-64.04-13.12-80.31-22.75l0.41 0.2c-21.36-8.11-61.43-21.24-70.06-24.29l0.38 0.1c-13.74-2.53-26.06-2.41-36.88-0.91l-0.69-4.88c4.33-0.59 9.38-1.2 11.67-1.87 2.3-0.66 3.97-1.55 9.31-2.14 5.35-0.59 17.66-0.77 21.56-0.96s4.01-0.39 7.4-0.36c1.7 0.02 4.18 0.09 8.44 0.26s9.96 0.41 12.46 0.49c4.99 0.17 3.51-0.01 7.87-0.04 2.18-0.01 7.72 0.03 11.18 0.14 3.45 0.12 4.98 0.18 6.18 0.31 2.42 0.25 2.69 0.64 14.51 2.02l0.18 0.02 0.07 0.02c3.85 0.89 5.86 1.31 7.24 1.54 2.2 0.37 3.04 0.27 7.87 0.83s15.82 2.35 19.44 2.91c7.26 1.1 3.42-0.22 24.83 2.27l-0.27-0.02c6.01 0.01 9.44 0.02 11.39 0.04 0.97 0 1.58 0.01 1.93 0.01h0.35 0.02c-0.03 0-1.17 0.37-1.17 0.37-0.02 0.01-0.23-0.2 0.46-0.38 0.35-0.09 0.74-0.13 1.33-0.17 0.29-0.03 0.66-0.05 1.1-0.08 0.45-0.03-0.48 0.02 1.63-0.09l11.73-0.45-10.67 4.91c-0.57 0.26-1.82 0.32-2.59 0.34-0.38 0.01-0.68 0.01-1.02-0.01-0.09 0-0.26-0.02-0.34-0.03-0.08-0.02-1.85-1.52-1.85-1.54-0.01-0.02 1.51-3.01 1.59-3.03s0.29-0.07 0.39-0.08c1.57-0.25 5.74-0.46 20.54-1.02 3.7-0.15 4.32-0.16 5.66-0.21 1.33-0.04 2.51-0.08 3.55-0.11 2.09-0.06 3.66-0.1 4.95-0.12 2.58-0.06 4.02-0.08 6.29-0.21 1.95-0.12 4.67-0.31 10.5-0.77 5.83-0.47 17.32-1.38 21.91-1.82 9.18-0.87 5.18-1.29 22.86-5.15l0.04-0.02 0.04 0.01c5.55-1.01 9.22-1.46 12.06-1.66 6.49-0.45 9.99 0.32 15.61 0.88 2.8 0.28 8.03 0.72 10.02 0.94s2.92 0.38 3.83 0.58c1.81 0.4 3.76 0.97 8.44 1.88 4.69 0.92 11.08 1.96 13.67 2.64 5.17 1.36 5.82 2.1 5.43 2.38-0.4 0.29-1.28-0.02-9.47-0.97-3.32-0.38-8.76-1.13-11.43-1.52-2.68-0.38-4.21-0.63-5.31-0.8-2.21-0.35-2.5-0.4-6.57-0.73-2.04-0.17-6.59-0.52-8.93-0.72s-4.32-0.41-6.19-0.57c-3.73-0.33-6.74-0.5-13.37 0.51"/>
    <path d="m178.07 331.09c0.58 0.09 1.16 0.2 1.74 0.3l0.19 0.03 0.18 0.07c8.69 3 48.87 15.92 70.37 23.88l0.23 0.07 0.19 0.14c15.05 8.69 39.14 18.19 66.07 21.08 2.79 0.3 6.71 0.65 11.61 0.78l-0.88 0.11c10.55-2.93 34.31-7.53 61.4-13.88 13.54-3.18 27.39-6.89 38.35-11.23s16.61-8.75 30.16-11.44c13.54-2.69 30.09-4.48 41.53-5.12 11.44-0.63 15.27-0.49 22.04 1.22 6.77 1.72 11.37 2.87 12.15 3.2 0.79 0.33 1.16 1.06-3.54 0.58-1.02-0.1-4.61-0.82-9.12-1.73-4.52-0.91-6.53-1.03-12.85-0.8-12.63 0.46-40.21 3.46-56.43 7.78-8.11 2.16-11.43 5.1-18.4 8.25-6.96 3.15-14.88 5.79-22.37 7.99-14.99 4.41-27.81 7.11-32.16 8.09-18.4 4.12-36.31 7.65-49.55 11.39l-0.23 0.06-0.21-0.01c-32.79-0.8-62.99-12.69-79.79-22.55l0.25 0.12c-21.19-7.98-61.72-21.18-70.17-24.07l0.25 0.07c-10.99-1.98-21.66-2.28-31.13-1.46-1.99 0.17-4 0.4-6 0.69l-0.49-3.5c3.5-0.49 7.99-1.01 10.49-1.61 2.51-0.59 3.6-1.33 7.01-1.99 1.71-0.33 3.96-0.62 7.39-0.86s9.3-0.39 12.73-0.48c6.85-0.17 7.71-0.42 9.86-0.53 1.08-0.05 2.42-0.05 5.1 0.02 2.67 0.07 8.04 0.29 12.82 0.48 9.56 0.38 8.42 0.25 11.29 0.17 2.86-0.08 15.46 0.1 18.48 0.33 3.03 0.23 2.23 0.57 15.26 2.09l0.11 0.01 0.09 0.03c7.17 1.65 7.78 1.68 10.48 1.91 1.36 0.12 3.23 0.28 6.64 0.71 3.4 0.43 10.06 1.43 13.35 2 13.18 2.27 4.62 0.12 28.95 2.95l-0.21-0.01c6.03 0.01 9.47 0.03 11.41 0.04 0.97 0.01 1.57 0.01 1.92 0.02h0.34 0.03c-0.02 0-1.23 0.55-1.24 0.55 0 0 1.02 3.09 1.03 3.09 0.01 0.01 0.02 0.01 0.01 0.01-0.04-0.01-0.12-0.02-0.23-0.04s-1.08-0.56-1.11-0.59c-0.01-0.02 0.32-2.76 0.35-2.78 0.02-0.02 0.53-0.25 0.61-0.27 0.3-0.08 0.65-0.11 1.24-0.16 0.29-0.02 0.65-0.05 1.09-0.07 0.45-0.03-0.17 0 1.61-0.09l9.25-0.36-8.41 3.86c-0.53 0.24-1.84 0.29-2.63 0.3-0.39 0.01-0.91-0.01-1.14-0.06-0.03-0.01-0.66-0.28-0.67-0.29s-0.25-2.8-0.24-2.81c0.02-0.02 0.86-0.48 0.97-0.51 0.21-0.04 0.38-0.06 0.64-0.08 1-0.1 3.24-0.24 7.85-0.45 4.61-0.22 13.78-0.57 16.85-0.67 12.27-0.42 11.98-0.18 18.44-0.63 3.23-0.23 8.09-0.62 16.38-1.31 8.3-0.68 14.1-1.16 16.55-1.49 4.91-0.66 4.17-1.44 19.74-4.84l0.06-0.01h0.01c16.19-2.93 18.96-1.6 27.19-0.85 2.06 0.19 6.19 0.51 8.28 0.69 2.09 0.17 3.32 0.29 4.26 0.39 1.87 0.21 2.68 0.4 4.75 0.78 4.13 0.75 16.35 2.47 20.38 3.32 4.02 0.85 5.21 1.25 5.71 1.4 0.74 0.2 1.3 0.35 1.92 0.47h0.12l0.06 0.03c12.63 4.18 9.65 3.98-0.46 1.72l0.09 0.02c-2.96-0.12-4.61-0.85-17.15-2.57-12.53-1.72-12.7-1.9-15.72-2.11s-13.26-0.91-17.1-1.24-6.27-0.35-7.62-0.31c-3.35 0.08-7.47 0.54-14.08 1.76l0.07-0.01c-17.87 3.95-14.57 4.42-21.88 5.25-1.83 0.2-4.3 0.43-7.93 0.75-3.64 0.31-8.82 0.75-12.26 1.04-6.86 0.58-10.53 0.88-13.15 1.05-2.61 0.18-4.16 0.22-6.7 0.29-1.26 0.03-2.78 0.07-4.82 0.14-1.02 0.03-2.18 0.07-3.49 0.11-1.31 0.05-0.91 0.03-4.84 0.18-15.7 0.6-21.01 1-21.37 1.06-0.02 0.01 0.04 0 0.07-0.01 0.02 0 0.28-0.09 0.28-0.09 0.01-0.01 1.15-1.16 1.15-1.16l-1.01-2.71c-0.01 0-0.51-0.17-0.52-0.18-0.02 0-0.17-0.02-0.18-0.03-0.01 0 0.31 0.01 0.62 0 0.63-0.02 1.1-0.07 0.9 0.02l-10.7 4.73 11.69-0.59c0.73-0.04-1.15 0.06-1.58 0.09-0.43 0.02-0.77 0.05-1.02 0.07-0.52 0.04-0.66 0.08-0.54 0.05 0.03-0.01 0.64-0.3 0.65-0.31s0.29-3.29 0.29-3.29c-0.02-0.02-1.04-0.58-1.08-0.59-0.05-0.01-0.04-0.01 0 0 0.02 0 0.07 0.01 0.1 0.01s0.89 3.98 0.89 3.99c-0.01 0-1.12 0.36-1.17 0.36h-0.14-0.39c-0.35 0-0.95 0-1.92-0.01-1.93-0.01-5.37-0.02-11.37-0.02l-0.04 0.01-0.21-0.03c-24.22-2.79-15.92-0.66-28.97-2.88-3.26-0.56-9.73-1.53-13.15-1.96s-5.24-0.59-6.61-0.7c-2.75-0.23-3.81-0.31-11.16-2l0.26 0.05c-11.4-1.33-12.51-1.78-14.26-1.98-0.87-0.1-2.09-0.17-5.08-0.26-2.98-0.1-8.69-0.17-11.13-0.16-4.87 0.01-3.68 0.2-7.86 0.1-4.19-0.11-17.25-0.69-21.02-0.75s-3.54 0.13-7.13 0.34c-1.8 0.1-4.47 0.21-8.96 0.28-4.48 0.08-9.5 0.37-12.26 0.65-5.52 0.55-6.34 1.2-9.08 2.03-2.73 0.83-8.02 1.49-12.6 2.12l-0.66-4.76c10.4-1.48 23.11-1.66 36.14 0.44"/>
    <path d="m466.01 331.25c-2.64-0.47-3.04-0.58-5.4-0.8-2.36-0.21-9.83-0.75-13.64-1.12-7.64-0.73-10.52-1.42-24.3 1.11l0.07-0.02c-20.38 4.5-13.37 4.47-25.75 5.59-3.1 0.29-8.59 0.74-13.01 1.11s-7.71 0.64-10.27 0.84c-5.11 0.41-7.36 0.54-9.56 0.61-1.86 0.06-3.65 0.07-6.88 0.15-1.62 0.04-3.59 0.09-6.1 0.18-2.5 0.08-9.43 0.34-13.99 0.54-4.55 0.19-7.37 0.34-9.04 0.45-0.83 0.05-1.38 0.09-1.67 0.12-0.15 0.02-0.25 0.03-0.22 0.03 0.01-0.01 0.2-0.06 0.22-0.06 0.01-0.01 1.05-2.95 1.05-2.96-0.01 0-1.32-0.92-1.34-0.92s-0.12-0.02-0.12-0.02c-0.01 0 0.06 0.01 0.15 0.01 0.18 0 0.47 0 0.75-0.01 0.57-0.02 0.53 0.1 0.68 0.04l0.92 3.84c-10.11 0.51 6.53 0.33-17.27 0.3l-0.17-0.01h-0.06c-24.31-2.84-15.94-0.72-28.96-2.97-3.26-0.57-9.72-1.54-13.13-1.98-3.42-0.44-5.25-0.6-6.62-0.72-2.75-0.24-3.74-0.33-11.11-2.03l0.21 0.03c-14.45-1.69-11.9-1.95-16.26-2.18-2.19-0.11-9.08-0.29-12.94-0.31s-4.66 0.05-5.78 0.08-2.41 0.01-7.12-0.17c-4.71-0.19-12.63-0.54-15.83-0.63-6.38-0.19-4.12 0.12-11.84 0.35-3.61 0.11-11.61 0.24-16.04 0.57-4.42 0.33-6.59 0.76-8.22 1.23-3.27 0.93-8.8 2.1-15.5 3.01l-0.44-3.16c10.75-1.5 24.24-1.66 38.19 0.86l0.14 0.03 0.09 0.03c9.06 3.12 51.28 16.93 70.31 23.97l0.17 0.05 0.11 0.09c2.86 1.65 6 3.29 9.28 4.85 18.08 8.6 42.28 16.3 68.86 16.99l-0.64 0.08c14.64-4.11 37.16-8.25 61.09-13.91 10.37-2.45 27.39-6.62 41.25-12.62 6.92-3 10.79-6.35 19.08-8.63 8.3-2.28 20.22-4.26 31.44-5.61 11.23-1.36 21.52-2.06 28.32-2.07 6.8-0.02 10.38 0.94 16.33 2.44 11.92 3.02 7.75 1.98 8.71 2.72 0.39 0.29-1.02 1.17-6.83 0.15-2.9-0.51-6.87-1.37-9.52-1.77-2.65-0.41-4.11-0.33-7.53-0.24-6.84 0.18-18.27 1.1-30.94 2.82-12.67 1.71-26.46 4.28-33.56 6.93-3.54 1.33-6.13 3.37-10.48 5.45-4.36 2.08-9.26 3.99-14.47 5.76-10.43 3.54-22.06 6.51-32.99 9.04-21.87 5.08-39.72 8.59-48.63 10.75-3.63 0.88-7.05 1.76-10.19 2.65l-0.38 0.07-0.16-0.01c-31.18-0.74-62.4-12.25-79.98-22.56l0.31 0.15c-21.42-8.06-61.43-21.07-70.16-24.07l0.32 0.08c-13.76-2.48-26.01-2.36-37.02-0.8l-0.59-4.18c3.2-0.44 6.92-0.87 9.37-1.35 2.45-0.47 3.48-0.96 5.32-1.51 1.83-0.56 4.24-1.08 8.89-1.45 4.64-0.37 13.23-0.51 16.92-0.64 7.36-0.26 5.1-0.61 12.57-0.38 3.74 0.12 12.55 0.5 16.59 0.65s4.64 0.13 5.79 0.08c0.77-0.02 1.75-0.07 4.78-0.06 3.04 0.02 9.83 0.16 12.6 0.29 5.54 0.25 0.88 0.33 17.65 2.34h0.11l0.09 0.03c6.61 1.56 7.64 1.74 10.11 1.99 1.23 0.13 2.88 0.28 5.96 0.67s9.72 1.35 13.34 2c14.48 2.61 5.05 0.4 29.95 3.38l-0.15-0.01c6.1 0.02 9.54 0.05 11.46 0.07 0.97 0.02 1.55 0.03 1.89 0.04 0.17 0 0.28 0.01 0.33 0.01h0.03c0 0.01-1.09 1.9-1.09 1.9 0.01 0 0.95 0.68 0.96 0.68 0 0 0-0.01-0.02-0.01-0.04-0.01-0.12-0.02-0.2-0.04-0.09-0.02-0.89-0.56-0.9-0.58-0.01-0.01 0.41-1.8 0.44-1.81 0.02-0.01 0.32-0.14 0.39-0.15 0.25-0.06 0.56-0.08 1.14-0.12 0.57-0.04-0.09-0.01 2.66-0.14l6.15-0.24-5.59 2.57c-0.51 0.21-2.01 0.22-2.76 0.19-0.19-0.01-0.39-0.02-0.53-0.05-0.03 0-0.27-0.07-0.28-0.08-0.02 0-0.58-1.59-0.58-1.59 0.01-0.02 0.75-0.57 0.84-0.59 0.39-0.06 0.86-0.09 1.93-0.15 2.15-0.12 6.4-0.32 13.78-0.6 3.69-0.14 7.55-0.27 9.2-0.32 1.65-0.04 3.05-0.08 4.27-0.11 9.73-0.21 9.99-0.06 14.76-0.36 2.78-0.17 6.82-0.48 13.93-1.05 3.55-0.29 8.28-0.67 11.24-0.92 2.97-0.25 5.02-0.44 6.54-0.61 6.07-0.7 3.56-1.21 20.89-4.99h0.07-0.05c11.94-2.16 16.18-1.91 21.59-1.35 5.41 0.55 15.79 1.4 18.32 1.77 2.52 0.36 4.08 0.88 9.1 1.82 5.03 0.95 11.32 1.99 12.94 2.5 3.06 0.97 2.25 1.08-3.18 0.62-2.71-0.22-8.72-1.03-11.95-1.49-3.24-0.45-4.84-0.74-6.21-0.94"/>
    <path d="m463.57 331.21c-0.64-0.03-1.18-0.08-3.28-0.24-2.09-0.15-9.29-0.66-13.27-1.04-7.96-0.77-12.41-1.15-24.26 0.99l0.09-0.01c-6.84 1.49-9.78 2.28-11.61 2.79-7.24 2.01-4.85 2.01-19.77 3.27-3.73 0.31-8.39 0.7-11.5 0.96-3.12 0.26-5.53 0.45-7.49 0.6-3.9 0.31-5.97 0.44-7.89 0.51-1.91 0.07-3.63 0.09-6.75 0.17-1.56 0.03-3.46 0.09-5.91 0.17-1.22 0.04-1.23 0.04-4.7 0.17s-6.4 0.24-8.87 0.35c-4.93 0.2-8.01 0.36-9.86 0.47-0.92 0.06-1.53 0.1-1.88 0.14-0.18 0.01-0.29 0.03-0.3 0.03 0 0 0.09-0.02 0.13-0.03s1.41-0.98 1.41-0.98c0.01-0.01-1.38-3.88-1.4-3.89-0.03 0-0.31-0.06-0.35-0.06h0.08c0.15 0.01 0.43 0.01 0.72 0 0.57-0.02 0.38 0.15 0.53 0.08l1.14 4.8c-2.52 0.13-3.36 0.26-3.06 0.18 0.31-0.09 0.63-0.08 0.57-0.05-0.12 0.04-2.9 0.16-14.81 0.14l-0.03 0.02-0.24-0.03c-24.24-2.84-15.95-0.76-28.94-3.02-3.25-0.57-9.7-1.55-13.12-1.99-3.42-0.45-5.25-0.61-6.62-0.74-2.76-0.25-3.79-0.34-11.17-2.06l0.25 0.05c-18.57-2.19-8.8-1.99-22.31-2.42-3.38-0.11-7.17-0.09-8.92-0.08-1.75 0-2.51 0.04-3.22 0.06-1.4 0.06-2.41 0.08-9.77-0.22-3.68-0.15-8.52-0.36-11.23-0.45s-4.36-0.13-5.49-0.12c-2.26 0-2.58 0.17-5.92 0.34-1.67 0.09-4.06 0.18-7.82 0.25s-8.67 0.28-11.49 0.51c-5.65 0.46-7.2 1.02-9.25 1.72-2.89 0.97-8.76 1.85-13.98 2.59l-0.62-4.38c13.38-1.91 27.21-1.24 38.41 0.74l0.2 0.03 0.15 0.06c5.45 1.8 19.91 6.45 32.7 10.67s26.31 8.72 37.76 12.95l0.23 0.1 0.22 0.11c9.86 5.68 25.42 14.78 57.37 19.89 6.42 1.03 13.21 1.74 20.23 1.95l-0.94 0.11c22.28-6.11 63.39-12.49 90.26-21.33 5.21-1.71 11.21-3.97 16.53-6.65 5.32-2.69 8.98-5.29 16.53-7.28 15.08-3.99 38-6.58 49.22-7.14 10.17-0.51 14.73-0.22 21.85 1.79s10.79 3.13 9.99 3.56c-0.59 0.31-2.39 0.36-5.88-0.11-3.48-0.47-7.92-1.37-10.76-1.4-5.67-0.06-21.1 0.91-38.94 3.52-8.92 1.3-18.02 2.96-24.73 4.75-6.72 1.79-9.27 3.77-14.88 6.58-11.22 5.61-25.67 9.75-37.54 12.83-23.54 6.12-51.68 11.15-70.12 16.34l-0.31 0.1-0.43-0.01c-31.64-0.79-63.52-12.94-80.21-22.8l0.38 0.18c-21.31-8.07-60.33-20.82-69.59-23.99-0.18-0.07-0.36-0.13-0.52-0.18l0.37 0.09c-13.32-2.41-25.89-2.37-36.89-0.82l-0.69-4.9c4.59-0.64 9.59-1.27 11.88-1.96 2.3-0.69 4.14-1.62 10.06-2.19 2.97-0.29 8.31-0.58 12.72-0.65s6.99-0.17 8.68-0.27c3.38-0.19 3.53-0.38 7.5-0.3 3.98 0.07 17.05 0.66 21.07 0.78 4.01 0.12 2.68-0.06 7.72-0.06 2.52 0 8.31 0.09 11.3 0.2 2.98 0.1 4.3 0.18 5.42 0.31 2.24 0.28 2.94 0.71 14.23 2.04l0.18 0.04 0.06 0.01c7.3 1.69 7.75 1.71 10.52 1.97 1.38 0.12 3.32 0.3 6.8 0.76 3.48 0.45 10.11 1.46 13.33 2.03 12.88 2.25 4.48 0.18 28.7 3.04l-0.23-0.01c6 0.01 9.45 0.04 11.39 0.06 0.97 0.01 1.57 0.02 1.93 0.03h0.35c0.06 0.01-0.98 0.33-0.99 0.34 0 0.01-0.22-0.18 0.4-0.33 0.31-0.08 0.67-0.11 1.26-0.15 0.29-0.03 0.65-0.05 1.1-0.07 0.44-0.03-0.24 0 1.62-0.09l9.7-0.37-8.82 4.06c-0.52 0.22-1.73 0.27-2.49 0.27-0.38 0.01-0.67 0.01-1-0.03-0.09-0.01-0.35-0.05-0.4-0.07-0.02 0-0.78-0.4-0.78-0.41-0.01-0.01-0.02-2.8-0.01-2.81 0.04-0.03 1.01-0.46 1.2-0.48 0.74-0.08 2.23-0.17 5.74-0.34 1.76-0.08 3.99-0.18 6.82-0.29 1.41-0.06 2.97-0.12 4.69-0.18 1.72-0.07 4.51-0.17 5.35-0.2 13.29-0.43 13.88-0.17 19.29-0.45 2.59-0.14 6.32-0.4 13.26-0.93 3.48-0.26 8.67-0.67 12.17-0.94s5.88-0.46 7.59-0.62c6.86-0.66 3.71-0.98 21.43-4.74h0.02 0.02c10.71-1.85 15.21-1.77 20.08-1.28 2.07 0.22 4.27 0.54 7.03 0.86 2.76 0.33 8.07 0.83 10.12 1.12 4.11 0.57 4.41 1.01 6.37 1.66s4.44 1.37 3.89 1.58c-0.56 0.21-4.02-0.13-6.26-0.29"/>
  </g>
</svg>
